<svg width="343" height="40" viewBox="0 0 343 40" fill="none" xmlns="http://www.w3.org/2000/svg">
<g clip-path="url(#clip0_3921_5041)">
<path fill-rule="evenodd" clip-rule="evenodd" d="M11.8479 38.8589C11.8558 38.8589 11.8637 38.859 11.8717 38.859C11.9459 38.8596 12.0207 38.8601 12.0961 38.8607C12.5313 38.8639 12.9869 38.8673 13.4638 38.8709M75.8026 20.9295C75.8026 20.9295 75.8026 20.9295 75.8026 20.9295C75.8668 20.928 75.93 20.9265 75.9921 20.925Z" fill="#489761"/>
<path fill-rule="evenodd" clip-rule="evenodd" d="M296.388 9.12393C297.248 8.26293 295.745 7.51093 292.654 7.25593C289.737 7.01393 288.182 7.15093 287.478 7.70993C287.359 7.80593 286.881 7.97193 286.417 8.08093C285.339 8.33293 283.626 9.93393 283.319 10.9759C282.877 12.4769 283.265 16.2909 283.939 17.0739C285.482 18.8639 288.27 20.5949 290.572 21.1929C291.11 21.3319 291.748 21.5869 291.989 21.7599C292.23 21.9319 292.727 22.1529 293.094 22.2499C295.25 22.8209 295.957 26.1279 294.406 28.3839C293.537 29.6479 292.248 29.9179 287.073 29.9239C283.671 29.9269 283.655 29.9309 283.45 30.7899C283.314 31.3609 283.638 31.6949 284.56 31.9319C284.945 32.0309 285.523 32.1969 285.844 32.2999C286.999 32.6719 291.799 32.5619 292.844 32.1399C293.348 31.9369 294.061 31.6939 294.427 31.6009C295.28 31.3839 296.987 29.7839 297.331 28.8789C299.107 24.2059 297.253 20.4069 292.427 18.8329C287.25 17.1449 285.844 15.9779 285.844 13.3669C285.844 10.8339 287.607 9.76393 291.797 9.75293C294.954 9.74493 295.896 9.61593 296.388 9.12393Z" fill="#489761"/>
<path fill-rule="evenodd" clip-rule="evenodd" d="M275.94 9.07993C276.536 8.42093 274.98 7.49393 273.052 7.35893C272.899 7.34826 272.753 7.33796 272.612 7.32805C272.592 7.32663 272.572 7.32522 272.552 7.32382C270.16 7.15577 269.371 7.102 268.623 7.25064C268.265 7.32171 267.916 7.43903 267.406 7.61224C267.333 7.63699 267.257 7.66287 267.177 7.68993C264.88 8.46793 264.187 8.89193 263.469 9.96093C261.555 12.8069 262.487 17.4929 265.24 18.8699C265.71 19.1049 266.244 19.4299 266.427 19.5929C266.611 19.7559 266.948 19.9429 267.177 20.0089C267.407 20.0749 267.931 20.3399 268.344 20.5979C268.756 20.8559 269.581 21.1609 270.177 21.2759C270.773 21.3909 271.609 21.6589 272.035 21.8729C272.461 22.0859 272.914 22.2599 273.043 22.2599C274.021 22.2599 274.899 24.1409 274.753 25.9269C274.478 29.3199 273.395 29.9029 267.177 30.0019L263.427 30.0619L263.094 30.6699L262.761 31.2789L263.094 31.5269C263.277 31.6629 263.615 31.8119 263.844 31.8569C264.073 31.9019 264.671 32.0579 265.173 32.2029C270.067 33.6209 276.169 31.5699 277.177 28.1689C277.459 27.2159 277.341 22.7959 277.021 22.3439C276.057 20.9799 273.399 19.1389 272.084 18.9249C271.559 18.8399 270.779 18.5869 270.351 18.3629C269.924 18.1399 269.26 17.8719 268.876 17.7689C268.229 17.5949 267.973 17.4169 266.685 16.2499C266.426 16.0149 266.018 15.6949 265.779 15.5379C265.099 15.0919 265.115 12.2309 265.801 11.3979C266.413 10.6559 266.674 10.4629 267.23 10.3359C267.489 10.2769 267.74 10.1229 267.79 9.99493C267.863 9.80493 268.479 9.75993 271.038 9.75993C274.342 9.75993 275.465 9.60393 275.94 9.07993Z" fill="#489761"/>
<path fill-rule="evenodd" clip-rule="evenodd" d="M257.677 7.75493C257.677 7.68393 257.326 7.50493 256.898 7.35893C256.241 7.13593 255.249 7.09693 250.606 7.11293C250.387 7.11368 250.176 7.11437 249.972 7.11503C249.879 7.11533 249.788 7.11562 249.698 7.11591C245.387 7.12993 244.452 7.14057 244.06 7.60737C243.952 7.7361 243.885 7.89952 243.8 8.10727C243.792 8.12629 243.784 8.14569 243.776 8.16546C243.768 8.18523 243.759 8.20539 243.751 8.22593C243.442 8.96593 243.39 30.3009 243.695 31.5099C243.709 31.5652 243.722 31.6192 243.734 31.6702C243.737 31.6811 243.739 31.6918 243.742 31.7024C243.806 31.9658 243.858 32.1664 243.974 32.3182C244.345 32.8043 245.371 32.7908 249.539 32.7358C249.78 32.7326 250.033 32.7293 250.296 32.7259C256.602 32.6449 257.135 32.5689 257.532 31.6959C258.111 30.4269 257.172 30.1529 252.094 30.1129C251.821 30.1108 251.561 30.1092 251.313 30.1076C251.164 30.1067 251.02 30.1059 250.879 30.105C248.259 30.088 247.094 30.0564 246.579 29.4619C246.166 28.9862 246.17 28.1498 246.175 26.6718C246.176 26.4882 246.177 26.2948 246.177 26.0909C246.177 25.745 246.175 25.4229 246.174 25.1229C246.173 24.9728 246.172 24.8284 246.171 24.6892C246.163 22.8801 246.185 21.9703 246.65 21.5027C247.121 21.0302 248.044 21.0091 249.849 20.9679C249.858 20.9677 249.867 20.9675 249.876 20.9673C250.174 20.9605 250.496 20.9531 250.844 20.9429C254.568 20.8349 254.921 20.7659 255.419 20.0549C256.259 18.8559 254.724 18.3429 250.741 18.4909C250.594 18.4964 250.452 18.5018 250.315 18.507C248.255 18.5846 247.22 18.6138 246.7 18.1106C246.185 17.6121 246.176 16.5912 246.177 14.5771C246.177 14.4428 246.177 14.3042 246.177 14.1609C246.177 13.8839 246.175 13.6238 246.174 13.3798C246.173 13.2577 246.173 13.1396 246.172 13.0254C246.166 11.5407 246.189 10.7069 246.613 10.2312C247.156 9.62265 248.355 9.59981 250.99 9.54962C251 9.54943 251.01 9.54925 251.019 9.54906C251.346 9.54285 251.693 9.53619 252.065 9.52793C257.421 9.40793 257.961 9.30193 257.781 8.40593C257.724 8.11993 257.677 7.82693 257.677 7.75493Z" fill="#489761"/>
<path fill-rule="evenodd" clip-rule="evenodd" d="M237.688 8.39593C237.271 7.86393 236.205 7.48593 234.511 7.26593C230.114 6.69593 225.803 8.26093 224.661 10.8419C224.492 11.2239 224.205 11.7249 224.023 11.9569C223.841 12.1879 223.54 12.9319 223.354 13.6099C223.168 14.2889 222.906 15.1439 222.771 15.5099C222.586 16.0109 222.526 16.9649 222.527 19.3439C222.531 29.1819 226.938 33.8249 234.879 32.3549C237.594 31.8529 237.904 31.6339 237.382 30.5879L237.094 30.0099L233.677 29.9069C229.262 29.7739 228.161 29.3589 227.11 27.4259C226.857 26.9609 226.498 26.4389 226.312 26.2669C225.173 25.2059 225.19 15.6899 226.334 13.4459C226.922 12.2929 228.104 11.0099 228.952 10.6039C229.397 10.3909 229.973 10.1139 230.233 9.98793C230.58 9.81993 231.531 9.75993 233.855 9.75993H237.005L237.521 9.29993L238.037 8.83893L237.688 8.39593Z" fill="#489761"/>
<path fill-rule="evenodd" clip-rule="evenodd" d="M217.145 9.04993C217.533 8.58193 215.29 7.49793 213.433 7.25593C211.474 7.00193 209.312 7.17593 208.366 7.66593C208.098 7.80393 207.566 7.96793 207.183 8.02893C206.752 8.09793 206.228 8.35593 205.808 8.70693C205.434 9.01893 205.008 9.33893 204.86 9.41893C204.712 9.49793 204.254 10.0989 203.842 10.7559C203.431 11.4119 202.933 12.1979 202.736 12.5029C202.315 13.1559 202.256 13.4019 201.918 15.9269C201.52 18.8969 201.36 21.4049 201.533 21.9889C201.618 22.2759 201.832 23.3639 202.01 24.4069C202.188 25.4499 202.437 26.4619 202.563 26.6569C202.69 26.8509 202.886 27.2919 202.999 27.6369C203.479 29.1029 206.176 31.6179 207.508 31.8429C207.897 31.9089 208.555 32.1129 208.969 32.2959C211.398 33.3699 217.52 32.0669 216.605 30.6699C216.187 30.0319 215.834 29.9659 212.727 29.9399C209.017 29.9099 208.152 29.6459 206.813 28.1389C206.751 28.0679 206.432 27.7269 206.105 27.3799C205.778 27.0329 205.511 26.6539 205.511 26.5379C205.511 26.4209 205.331 25.9549 205.111 25.5009C204.337 23.9079 204.144 17.0469 204.83 15.5419C205.021 15.1219 205.178 14.6429 205.18 14.4779C205.184 13.9499 205.602 12.9489 205.982 12.5569C206.184 12.3479 206.677 11.8259 207.077 11.3959C208.411 9.96293 209.359 9.68593 213.011 9.66493C216.048 9.64693 216.734 9.54493 217.145 9.04993Z" fill="#489761"/>
<path fill-rule="evenodd" clip-rule="evenodd" d="M181.514 16.6529C181.433 8.56093 181.406 7.93893 181.125 7.62793C180.474 6.90893 179.443 7.22593 178.997 8.28193C178.683 9.02793 178.655 24.4529 178.967 25.5099C179.075 25.8769 179.284 26.6639 179.433 27.2599C179.786 28.6759 180.94 30.4569 181.706 30.7659C182.011 30.8889 182.486 31.1509 182.761 31.3469C184.625 32.6809 187.755 32.9669 190.093 32.0189C193.49 30.6409 193.598 30.5319 195.044 27.0099L195.592 25.6769L195.646 17.2599C195.707 7.76793 195.701 7.71393 194.697 7.41293C192.923 6.88193 192.829 7.37893 192.791 17.5359L192.761 25.8439L192.011 27.2379C190.939 29.2309 190.366 29.6129 188.291 29.7209C184.986 29.8939 183.648 29.4579 182.67 27.8869C182.658 27.8678 182.644 27.8461 182.633 27.8273C182.45 27.5327 182.299 27.2874 182.175 27.0294C181.605 25.8452 181.591 24.394 181.514 16.6782C181.514 16.6698 181.514 16.6614 181.514 16.6529Z" fill="#489761"/>
<path fill-rule="evenodd" clip-rule="evenodd" d="M134.206 18.0613L134.133 18.0663L134.066 18.0709C133.573 18.1055 133.243 18.1285 133.026 17.9839C132.589 17.6941 132.6 16.731 132.633 13.8384C132.635 13.6326 132.637 13.4168 132.64 13.1909C132.679 9.47093 132.646 8.75593 132.415 8.23793C131.867 7.01193 130.37 6.91493 129.775 8.06693C129.421 8.75093 129.579 31.4859 129.942 32.0489C130.41 32.7779 131.764 32.6669 132.225 31.8619C132.365 31.6199 132.455 30.0099 132.515 26.6769L132.524 26.1598C132.588 22.5908 132.607 21.5742 133.095 21.2349C133.29 21.0997 133.559 21.072 133.936 21.0332C133.98 21.0287 134.026 21.024 134.073 21.0189C135.472 20.8689 136.305 21.2489 136.753 22.2429C136.92 22.6139 137.197 23.0439 137.368 23.1989C137.539 23.3529 137.761 23.7859 137.862 24.1609C138.024 24.7609 138.382 25.2769 139.492 26.5099C139.657 26.6939 140.073 27.3689 140.416 28.0099C140.759 28.6519 141.288 29.4389 141.59 29.7599C141.893 30.0809 142.195 30.5309 142.26 30.7599C142.64 32.0839 144.439 33.0009 145.522 32.4209C146.298 32.0059 145.385 29.6949 143.91 28.3439C143.71 28.1599 143.429 27.6489 143.285 27.2079C143.141 26.7659 142.73 26.0539 142.372 25.6239C142.014 25.1949 141.525 24.4549 141.286 23.9799C141.046 23.5059 140.772 23.0689 140.675 23.0089C140.579 22.9489 140.344 22.5689 140.154 22.1639C139.963 21.7589 139.746 21.4269 139.671 21.4269C139.596 21.4269 139.256 20.9679 138.915 20.4059L138.295 19.3859L138.75 18.4479C139.354 17.2029 140.307 15.8229 140.773 15.5179C140.979 15.3819 141.199 15.0399 141.261 14.7569C141.324 14.4739 141.555 14.0399 141.776 13.7929C142.772 12.6789 143.197 12.0859 143.371 11.5679C143.475 11.2609 143.995 10.5509 144.528 9.98993M256.898 7.35893C257.326 7.50493 257.677 7.68393 257.677 7.75493C257.677 7.82693 257.724 8.11993 257.781 8.40593C257.961 9.30193 257.421 9.40793 252.065 9.52793C251.693 9.53619 251.346 9.54285 251.019 9.54906L250.99 9.54962C248.355 9.59981 247.156 9.62265 246.613 10.2312C246.189 10.7069 246.166 11.5407 246.172 13.0254L246.174 13.3798C246.175 13.6238 246.177 13.8839 246.177 14.1609L246.177 14.5771C246.176 16.5912 246.185 17.6121 246.7 18.1106C247.22 18.6138 248.255 18.5846 250.315 18.507L250.741 18.4909C254.724 18.3429 256.259 18.8559 255.419 20.0549C254.921 20.7659 254.568 20.8349 250.844 20.9429C250.496 20.9531 250.174 20.9605 249.876 20.9673L249.849 20.9679C248.044 21.0091 247.121 21.0302 246.65 21.5027C246.185 21.9703 246.163 22.8801 246.171 24.6892L246.174 25.1229C246.175 25.4229 246.177 25.745 246.177 26.0909C246.177 26.2948 246.176 26.4882 246.175 26.6718C246.17 28.1498 246.166 28.9862 246.579 29.4619C247.094 30.0564 248.259 30.088 250.879 30.105L251.313 30.1076C251.561 30.1092 251.821 30.1108 252.094 30.1129C257.172 30.1529 258.111 30.4269 257.532 31.6959C257.135 32.5689 256.602 32.6449 250.296 32.7259L249.539 32.7358C245.371 32.7908 244.345 32.8043 243.974 32.3182C243.858 32.1664 243.806 31.9658 243.742 31.7024L243.734 31.6702C243.722 31.6192 243.709 31.5652 243.695 31.5099C243.39 30.3009 243.442 8.96593 243.751 8.22593L243.776 8.16546L243.8 8.10727C243.885 7.89952 243.952 7.7361 244.06 7.60737C244.452 7.14057 245.387 7.12993 249.698 7.11591L249.972 7.11503L250.606 7.11293C255.249 7.09693 256.241 7.13593 256.898 7.35893Z" fill="#489761"/>
<path fill-rule="evenodd" clip-rule="evenodd" d="M166.794 9.75793C171.404 9.75493 172.766 8.97093 170.202 7.79493C169.179 7.32493 164.358 7.07593 163.011 7.42393C157.475 8.85193 155.819 13.3459 159.156 17.8819C159.57 18.4439 160.057 18.7789 161.551 19.5269C162.583 20.0429 163.69 20.6069 164.011 20.7789C164.331 20.9519 164.752 21.0929 164.944 21.0929C165.489 21.0939 166.383 21.4429 166.87 21.8469C167.114 22.0479 167.607 22.2599 167.966 22.3169C169.732 22.5999 170.73 26.0419 169.488 27.5679C169.271 27.8339 168.969 28.2809 168.817 28.5609C168.239 29.6229 166.982 29.8799 162.011 29.9559L158.761 30.0049L158.302 30.4839C157.777 31.0319 157.751 31.1429 158.087 31.4209C159.038 32.2099 165.496 32.8779 166.994 32.3429C167.416 32.1919 168.163 31.9469 168.655 31.7979C170.933 31.1099 173.179 27.6799 172.966 25.2169C172.776 23.0379 171.488 20.9219 169.888 20.1659C169.365 19.9179 168.747 19.5769 168.515 19.4079C168.284 19.2389 167.427 18.9089 166.611 18.6739C164.605 18.0969 162.025 16.7439 161.178 15.8249L160.511 15.1009V13.5519V12.0029L161.219 11.2379C161.741 10.6749 162.101 10.4419 162.588 10.3529C162.952 10.2859 163.454 10.1259 163.705 9.99593C164.041 9.82193 164.853 9.75993 166.794 9.75793Z" fill="#489761"/>
<path fill-rule="evenodd" clip-rule="evenodd" d="M132.524 26.1598L132.515 26.6769C132.455 30.0099 132.365 31.6199 132.225 31.8619C131.764 32.6669 130.41 32.7779 129.942 32.0489C129.579 31.4859 129.421 8.75093 129.775 8.06693C130.37 6.91493 131.867 7.01193 132.415 8.23793C132.646 8.75593 132.679 9.47093 132.64 13.1909C132.637 13.4168 132.635 13.6326 132.633 13.8384C132.6 16.731 132.589 17.6941 133.026 17.9839C133.243 18.1285 133.573 18.1055 134.066 18.0709C134.088 18.0694 134.11 18.0678 134.133 18.0663C134.157 18.0646 134.181 18.0629 134.206 18.0613C134.232 18.0595 134.26 18.0577 134.287 18.0559C135.713 17.9639 136.203 17.6919 136.698 16.7159C136.894 16.3279 137.27 15.7639 137.533 15.4629C137.796 15.1619 138.011 14.8079 138.011 14.6769C138.011 14.5459 138.225 14.1919 138.486 13.8909C138.748 13.5899 139.054 13.1689 139.166 12.9549C139.37 12.5669 139.548 12.3299 140.363 11.3619C140.603 11.0769 140.951 10.5439 141.137 10.1769C141.323 9.80993 141.633 9.36693 141.826 9.19293C142.019 9.01793 142.177 8.78893 142.177 8.68393C142.177 8.46693 143.1 7.55593 143.575 7.30493C143.899 7.13293 144.948 7.28693 145.176 7.53893C145.719 8.13993 145.5 8.96693 144.528 9.98993C143.995 10.5509 143.475 11.2609 143.371 11.5679C143.197 12.0859 142.772 12.6789 141.776 13.7929C141.555 14.0399 141.324 14.4739 141.261 14.7569C141.199 15.0399 140.979 15.3819 140.773 15.5179C140.307 15.8229 139.354 17.2029 138.75 18.4479L138.295 19.3859L138.915 20.4059C139.256 20.9679 139.596 21.4269 139.671 21.4269C139.746 21.4269 139.963 21.7589 140.154 22.1639C140.344 22.5689 140.579 22.9489 140.675 23.0089C140.772 23.0689 141.046 23.5059 141.286 23.9799C141.525 24.4549 142.014 25.1949 142.372 25.6239C142.73 26.0539 143.141 26.7659 143.285 27.2079C143.429 27.6489 143.71 28.1599 143.91 28.3439C145.385 29.6949 146.298 32.0059 145.522 32.4209C144.439 33.0009 142.64 32.0839 142.26 30.7599C142.195 30.5309 141.893 30.0809 141.59 29.7599C141.288 29.4389 140.759 28.6519 140.416 28.0099C140.073 27.3689 139.657 26.6939 139.492 26.5099C138.382 25.2769 138.024 24.7609 137.862 24.1609C137.761 23.7859 137.539 23.3529 137.368 23.1989C137.197 23.0439 136.92 22.6139 136.753 22.2429C136.305 21.2489 135.472 20.8689 134.073 21.0189C134.026 21.024 133.98 21.0287 133.936 21.0332C133.559 21.072 133.29 21.0997 133.095 21.2349C132.607 21.5742 132.588 22.5908 132.524 26.1598Z" fill="#489761"/>
<path fill-rule="evenodd" clip-rule="evenodd" d="M75.8026 20.9295C75.7564 20.9306 75.7094 20.9317 75.6622 20.9328C75.3314 20.9407 74.9744 20.9488 74.5898 20.9549C70.7928 21.0159 70.1908 21.0889 69.6768 21.5459C69.6308 21.5869 69.5558 24.0029 69.5108 26.9149L69.5085 27.0602C69.4407 31.364 69.424 32.4183 68.9623 32.6764C68.8125 32.7601 68.6159 32.76 68.3554 32.7599L68.3268 32.7599C68.2712 32.7599 68.2181 32.761 68.1675 32.762C67.9738 32.7659 67.8151 32.769 67.6848 32.7097C67.0964 32.442 67.0874 30.9007 67.0493 22.3967L67.0489 22.3038" fill="#489761"/>
<path fill-rule="evenodd" clip-rule="evenodd" d="M12.0961 38.8607L11.8717 38.859C4.20763 38.8021 2.98773 38.7882 2.7147 38.2727C2.66306 38.1752 2.64529 38.0597 2.6242 37.9226C2.61799 37.8823 2.6115 37.8401 2.60377 37.7959C2.54377 37.4559 2.31977 36.5389 2.10577 35.7599C1.55577 33.7539 1.72577 21.5409 2.34177 18.8739C2.42977 18.4909 2.50377 17.6299 2.50677 16.9609C2.51177 15.4119 2.88977 14.9269 4.09177 14.9269C5.12277 14.9269 5.83576 14.5989 6.52076 13.8109C6.83576 13.4479 7.41177 12.9749 7.79977 12.7599C8.34777 12.4559 8.56877 12.1979 8.78777 11.6059C8.94377 11.1869 9.16976 10.6959 9.29076 10.5149C9.60476 10.0449 9.57077 9.86693 9.01477 9.04293C8.24377 7.89993 8.11577 7.83493 7.45277 8.24493L6.88477 8.59593L6.43877 8.01093C6.01477 7.45493 5.94477 7.42693 4.96577 7.42693C3.76077 7.42693 2.56277 7.02093 2.41777 6.56293C2.21177 5.91693 2.51677 4.58293 2.90277 4.44093C3.88777 4.07693 9.72976 3.94093 10.8258 4.25493C11.4328 4.42893 12.5378 3.96093 12.9278 3.36593C13.2838 2.82193 14.1048 2.34093 14.9368 2.18893C15.3998 2.10493 15.7658 1.87793 16.1768 1.42193C16.7228 0.815927 17.0438 0.688927 17.8848 0.741926C18.0448 0.751926 18.4628 1.01993 18.8138 1.33693C20.1398 2.53393 23.0108 2.53993 24.5728 1.34893C25.2188 0.855927 25.7438 0.947927 26.4798 1.68393C27.1268 2.33193 28.1868 2.26193 28.9258 1.52293C29.5828 0.865927 30.7588 0.621927 31.9598 0.894927C32.3548 0.984927 32.9728 0.994927 33.3798 0.918927C35.5838 0.507927 41.5068 0.809927 42.6888 1.39393C43.0798 1.58793 43.4538 1.71193 43.5208 1.66993C43.6818 1.57093 47.9478 1.25093 50.1768 1.17093C51.1398 1.13593 52.6018 1.06293 53.4268 1.00793C54.2518 0.951927 55.0018 0.909927 55.0938 0.912927C58.3908 1.01893 85.8748 1.07893 96.9268 1.00393C103.575 0.958927 112.491 0.948926 129.844 0.965926C139.113 0.974926 142.773 0.923927 143.741 0.770927C144.762 0.609927 145.286 0.607927 146.092 0.759927C146.887 0.909927 147.981 0.909927 150.778 0.757927C155.145 0.521927 155.62 0.529926 156.981 0.866926C157.561 1.00993 158.228 1.09093 158.464 1.04593C158.699 1.00093 159.108 1.02593 159.372 1.10193C159.695 1.19393 160.041 1.16093 160.426 0.999927C160.742 0.867927 161.226 0.759927 161.502 0.759927C161.778 0.759927 162.3 0.641927 162.661 0.496927C163.259 0.257927 163.41 0.257927 164.341 0.496927C165.262 0.732927 165.413 0.732927 165.859 0.502927C166.161 0.345927 166.562 0.282926 166.89 0.340926C167.186 0.391926 167.652 0.363927 167.927 0.278927C168.202 0.192927 168.54 0.158927 168.677 0.202927C169.674 0.522927 170.567 0.572927 171.226 0.342927C172.049 0.0559273 172.656 0.0309272 173.254 0.257927C173.491 0.347927 174.977 0.461927 176.556 0.509927C178.135 0.558927 180.027 0.675927 180.761 0.769927C183.512 1.12393 191.593 0.935927 192.656 0.493927C193.43 0.171927 193.949 0.200927 194.797 0.610927C195.326 0.866927 195.689 0.933927 196.141 0.857927C197.574 0.616927 201.605 0.486927 202.177 0.663927C202.81 0.858927 219.534 0.867927 238.761 0.683927C244.627 0.626927 249.54 0.580927 249.677 0.579927C249.815 0.579927 251.765 0.662927 254.011 0.764927C256.256 0.866927 259.894 0.912926 262.094 0.866926C264.294 0.820926 269.277 0.782927 273.167 0.782927C279.223 0.783927 280.463 0.741927 281.799 0.489927C283.304 0.206927 283.391 0.206927 284.268 0.505927C285.092 0.785927 285.347 0.795927 286.978 0.618927C287.967 0.511927 289.114 0.469927 289.525 0.526927C289.936 0.582927 290.542 0.554927 290.872 0.463927C291.593 0.263927 292.263 0.388927 294.251 1.09193C295.296 1.46193 295.9 1.58893 296.275 1.51893C296.64 1.44993 296.988 1.51693 297.369 1.72993C297.872 2.00993 298.249 2.03593 301.177 1.98393L302.152 1.96667C309.487 1.83667 310.166 1.82465 310.712 2.08701C310.767 2.11337 310.821 2.14251 310.88 2.17458C310.905 2.1884 310.934 2.20402 310.962 2.21893C311.348 2.42493 311.902 2.59393 312.193 2.59393C312.484 2.59393 313.016 2.68193 313.375 2.78893C313.88 2.94093 314.263 2.93793 315.073 2.77693C315.96 2.60093 316.271 2.60893 317.13 2.83093C318.442 3.17093 320.057 3.16093 321.927 2.79993C323.626 2.47193 327.412 2.44493 333.011 2.72093C336.237 2.87993 336.88 2.99893 337.961 3.63593C338.308 3.84093 339.056 4.00393 340.097 4.10193C342.011 4.28283 342.011 4.28293 342.008 5.0607C342.005 5.8837 341.878 6.04093 341.094 6.18493C339.895 6.40493 339.179 7.21393 339.181 8.34393C339.183 9.32493 339.327 9.45193 340.482 9.48293C341.779 9.51793 341.917 9.66793 342.278 11.4269C342.666 13.3159 342.75 14.9659 342.507 15.9059C342.394 16.3439 342.29 18.1179 342.266 20.0099C342.205 24.7989 342.009 25.8289 341.043 26.4419C339.822 27.2159 339.515 27.8059 339.704 29.0099C340.294 32.7749 340.036 36.2779 339.084 37.4089L338.69 37.8769L336.984 37.7949L335.278 37.7129L334.853 38.2109C334.122 39.0689 333.619 39.2789 331.753 39.5079C329.842 39.7409 323.04 39.4729 320.927 39.0809C320.192 38.9439 317.791 38.9439 311.844 39.0819C307.398 39.1849 302.411 39.2999 300.761 39.3379C299.111 39.3749 296.523 39.5009 295.011 39.6179C293.084 39.7659 288.844 39.8169 280.844 39.7899C274.565 39.7689 253.827 39.7349 234.761 39.7139C212.077 39.6899 200.008 39.6199 199.844 39.5109C199.679 39.4009 175.662 39.3429 129.177 39.3399C90.4478 39.3379 54.4398 39.2689 49.1598 39.1879C40.3348 39.0519 39.4888 39.0629 38.6938 39.3219C37.9918 39.5519 37.7128 39.5699 37.2118 39.4189C36.4458 39.1879 27.3038 38.9769 13.4638 38.8709L12.0961 38.8607ZM69.517 14.0082L69.5169 13.95C69.5169 13.9311 69.5169 13.9121 69.5169 13.893C69.5169 13.8741 69.5168 13.8551 69.5168 13.836C69.5166 13.5841 69.5161 13.318 69.5148 13.0379C69.4888 7.63193 69.4758 7.55893 68.5358 7.35993C66.9918 7.03193 66.9788 7.14993 67.0418 20.7359L67.0489 22.3038L67.0493 22.3967C67.0874 30.9007 67.0964 32.442 67.6848 32.7097C67.8151 32.769 67.9738 32.7659 68.1675 32.762C68.2181 32.761 68.2712 32.7599 68.3268 32.7599L68.3554 32.7599C68.6159 32.76 68.8125 32.7601 68.9623 32.6764C69.424 32.4183 69.4407 31.364 69.5085 27.0602L69.5108 26.9149C69.5558 24.0029 69.6308 21.5869 69.6768 21.5459C70.1908 21.0889 70.7928 21.0159 74.5898 20.9549C74.9744 20.9488 75.3314 20.9407 75.6622 20.9328C75.7094 20.9317 75.7564 20.9306 75.8026 20.9295C77.7469 20.8832 78.7635 20.8589 79.2919 21.3548C79.8709 21.8981 79.8638 23.0659 79.8491 25.5132C79.8465 25.9378 79.8438 26.4009 79.8438 26.9059C79.8448 31.9089 79.9468 32.4549 80.9058 32.5649C81.7828 32.6649 82.1508 32.4699 82.3468 31.7999C82.6828 30.6489 82.4938 8.26393 82.1438 7.72993C81.7968 7.19993 80.7918 7.01493 80.4488 7.41793C80.0118 7.92993 79.9718 8.40693 80.0018 12.7639C80.0038 13.0721 80.0065 13.3643 80.009 13.6413C80.033 16.2834 80.0444 17.547 79.4201 18.1311C78.8478 18.6665 77.7409 18.631 75.62 18.5628C75.3768 18.555 75.1203 18.5468 74.8498 18.5389C74.5074 18.529 74.187 18.5211 73.8872 18.5137C71.7087 18.4597 70.6171 18.4327 70.0696 17.8732C69.5196 17.3112 69.5187 16.2118 69.517 14.0082ZM296.388 9.12393C297.248 8.26293 295.745 7.51093 292.654 7.25593C289.737 7.01393 288.182 7.15093 287.478 7.70993C287.359 7.80593 286.881 7.97193 286.417 8.08093C285.339 8.33293 283.626 9.93393 283.319 10.9759C282.877 12.4769 283.265 16.2909 283.939 17.0739C285.482 18.8639 288.27 20.5949 290.572 21.1929C291.11 21.3319 291.748 21.5869 291.989 21.7599C292.23 21.9319 292.727 22.1529 293.094 22.2499C295.25 22.8209 295.957 26.1279 294.406 28.3839C293.537 29.6479 292.248 29.9179 287.073 29.9239C283.671 29.9269 283.655 29.9309 283.45 30.7899C283.314 31.3609 283.638 31.6949 284.56 31.9319C284.945 32.0309 285.523 32.1969 285.844 32.2999C286.999 32.6719 291.799 32.5619 292.844 32.1399C293.348 31.9369 294.061 31.6939 294.427 31.6009C295.28 31.3839 296.987 29.7839 297.331 28.8789C299.107 24.2059 297.253 20.4069 292.427 18.8329C287.25 17.1449 285.844 15.9779 285.844 13.3669C285.844 10.8339 287.607 9.76393 291.797 9.75293C294.954 9.74493 295.896 9.61593 296.388 9.12393ZM275.94 9.07993C276.536 8.42093 274.98 7.49393 273.052 7.35893L272.612 7.32805L272.552 7.32382C270.16 7.15577 269.371 7.102 268.623 7.25064C268.265 7.32171 267.916 7.43903 267.406 7.61224L267.177 7.68993C264.88 8.46793 264.187 8.89193 263.469 9.96093C261.555 12.8069 262.487 17.4929 265.24 18.8699C265.71 19.1049 266.244 19.4299 266.427 19.5929C266.611 19.7559 266.948 19.9429 267.177 20.0089C267.407 20.0749 267.931 20.3399 268.344 20.5979C268.756 20.8559 269.581 21.1609 270.177 21.2759C270.773 21.3909 271.609 21.6589 272.035 21.8729C272.461 22.0859 272.914 22.2599 273.043 22.2599C274.021 22.2599 274.899 24.1409 274.753 25.9269C274.478 29.3199 273.395 29.9029 267.177 30.0019L263.427 30.0619L263.094 30.6699L262.761 31.2789L263.094 31.5269C263.277 31.6629 263.615 31.8119 263.844 31.8569C264.073 31.9019 264.671 32.0579 265.173 32.2029C270.067 33.6209 276.169 31.5699 277.177 28.1689C277.459 27.2159 277.341 22.7959 277.021 22.3439C276.057 20.9799 273.399 19.1389 272.084 18.9249C271.559 18.8399 270.779 18.5869 270.351 18.3629C269.924 18.1399 269.26 17.8719 268.876 17.7689C268.229 17.5949 267.973 17.4169 266.685 16.2499C266.426 16.0149 266.018 15.6949 265.779 15.5379C265.099 15.0919 265.115 12.2309 265.801 11.3979C266.413 10.6559 266.674 10.4629 267.23 10.3359C267.489 10.2769 267.74 10.1229 267.79 9.99493C267.863 9.80493 268.479 9.75993 271.038 9.75993C274.342 9.75993 275.465 9.60393 275.94 9.07993ZM257.677 7.75493C257.677 7.68393 257.326 7.50493 256.898 7.35893L257.677 7.75493ZM237.688 8.39593C237.271 7.86393 236.205 7.48593 234.511 7.26593C230.114 6.69593 225.803 8.26093 224.661 10.8419C224.492 11.2239 224.205 11.7249 224.023 11.9569C223.841 12.1879 223.54 12.9319 223.354 13.6099C223.168 14.2889 222.906 15.1439 222.771 15.5099C222.586 16.0109 222.526 16.9649 222.527 19.3439C222.531 29.1819 226.938 33.8249 234.879 32.3549C237.594 31.8529 237.904 31.6339 237.382 30.5879L237.094 30.0099L233.677 29.9069C229.262 29.7739 228.161 29.3589 227.11 27.4259C226.857 26.9609 226.498 26.4389 226.312 26.2669C225.173 25.2059 225.19 15.6899 226.334 13.4459C226.922 12.2929 228.104 11.0099 228.952 10.6039C229.397 10.3909 229.973 10.1139 230.233 9.98793C230.58 9.81993 231.531 9.75993 233.855 9.75993H237.005L237.521 9.29993L238.037 8.83893L237.688 8.39593ZM217.145 9.04993C217.533 8.58193 215.29 7.49793 213.433 7.25593C211.474 7.00193 209.312 7.17593 208.366 7.66593C208.098 7.80393 207.566 7.96793 207.183 8.02893C206.752 8.09793 206.228 8.35593 205.808 8.70693C205.434 9.01893 205.008 9.33893 204.86 9.41893C204.712 9.49793 204.254 10.0989 203.842 10.7559C203.431 11.4119 202.933 12.1979 202.736 12.5029C202.315 13.1559 202.256 13.4019 201.918 15.9269C201.52 18.8969 201.36 21.4049 201.533 21.9889C201.618 22.2759 201.832 23.3639 202.01 24.4069C202.188 25.4499 202.437 26.4619 202.563 26.6569C202.69 26.8509 202.886 27.2919 202.999 27.6369C203.479 29.1029 206.176 31.6179 207.508 31.8429C207.897 31.9089 208.555 32.1129 208.969 32.2959C211.398 33.3699 217.52 32.0669 216.605 30.6699C216.187 30.0319 215.834 29.9659 212.727 29.9399C209.017 29.9099 208.152 29.6459 206.813 28.1389C206.751 28.0679 206.432 27.7269 206.105 27.3799C205.778 27.0329 205.511 26.6539 205.511 26.5379C205.511 26.4209 205.331 25.9549 205.111 25.5009C204.337 23.9079 204.144 17.0469 204.83 15.5419C205.021 15.1219 205.178 14.6429 205.18 14.4779C205.184 13.9499 205.602 12.9489 205.982 12.5569C206.184 12.3479 206.677 11.8259 207.077 11.3959C208.411 9.96293 209.359 9.68593 213.011 9.66493C216.048 9.64693 216.734 9.54493 217.145 9.04993ZM181.514 16.6529C181.433 8.56093 181.406 7.93893 181.125 7.62793C180.474 6.90893 179.443 7.22593 178.997 8.28193C178.683 9.02793 178.655 24.4529 178.967 25.5099C179.075 25.8769 179.284 26.6639 179.433 27.2599C179.786 28.6759 180.94 30.4569 181.706 30.7659C182.011 30.8889 182.486 31.1509 182.761 31.3469C184.625 32.6809 187.755 32.9669 190.093 32.0189C193.49 30.6409 193.598 30.5319 195.044 27.0099L195.592 25.6769L195.646 17.2599C195.707 7.76793 195.701 7.71393 194.697 7.41293C192.923 6.88193 192.829 7.37893 192.791 17.5359L192.761 25.8439L192.011 27.2379C190.939 29.2309 190.366 29.6129 188.291 29.7209C184.986 29.8939 183.648 29.4579 182.67 27.8869L182.633 27.8273C182.45 27.5327 182.299 27.2874 182.175 27.0294C181.605 25.8452 181.591 24.394 181.514 16.6782L181.514 16.6529ZM134.206 18.0613L134.133 18.0663L134.066 18.0709C133.573 18.1055 133.243 18.1285 133.026 17.9839C132.589 17.6941 132.6 16.731 132.633 13.8384C132.635 13.6326 132.637 13.4168 132.64 13.1909C132.679 9.47093 132.646 8.75593 132.415 8.23793C131.867 7.01193 130.37 6.91493 129.775 8.06693C129.421 8.75093 129.579 31.4859 129.942 32.0489C130.41 32.7779 131.764 32.6669 132.225 31.8619C132.365 31.6199 132.455 30.0099 132.515 26.6769L132.524 26.1598C132.588 22.5908 132.607 21.5742 133.095 21.2349C133.29 21.0997 133.559 21.072 133.936 21.0332C133.98 21.0287 134.026 21.024 134.073 21.0189C135.472 20.8689 136.305 21.2489 136.753 22.2429C136.92 22.6139 137.197 23.0439 137.368 23.1989C137.539 23.3529 137.761 23.7859 137.862 24.1609C138.024 24.7609 138.382 25.2769 139.492 26.5099C139.657 26.6939 140.073 27.3689 140.416 28.0099C140.759 28.6519 141.288 29.4389 141.59 29.7599C141.893 30.0809 142.195 30.5309 142.26 30.7599C142.64 32.0839 144.439 33.0009 145.522 32.4209C146.298 32.0059 145.385 29.6949 143.91 28.3439C143.71 28.1599 143.429 27.6489 143.285 27.2079C143.141 26.7659 142.73 26.0539 142.372 25.6239C142.014 25.1949 141.525 24.4549 141.286 23.9799C141.046 23.5059 140.772 23.0689 140.675 23.0089C140.579 22.9489 140.344 22.5689 140.154 22.1639C139.963 21.7589 139.746 21.4269 139.671 21.4269C139.596 21.4269 139.256 20.9679 138.915 20.4059L138.295 19.3859L138.75 18.4479C139.354 17.2029 140.307 15.8229 140.773 15.5179C140.979 15.3819 141.199 15.0399 141.261 14.7569C141.324 14.4739 141.555 14.0399 141.776 13.7929C142.772 12.6789 143.197 12.0859 143.371 11.5679C143.475 11.2609 143.995 10.5509 144.528 9.98993C145.5 8.96693 145.719 8.13993 145.176 7.53893C144.948 7.28693 143.899 7.13293 143.575 7.30493C143.1 7.55593 142.177 8.46693 142.177 8.68393C142.177 8.78893 142.019 9.01793 141.826 9.19293C141.633 9.36693 141.323 9.80993 141.137 10.1769C140.951 10.5439 140.603 11.0769 140.363 11.3619C139.548 12.3299 139.37 12.5669 139.166 12.9549C139.054 13.1689 138.748 13.5899 138.486 13.8909C138.225 14.1919 138.011 14.5459 138.011 14.6769C138.011 14.8079 137.796 15.1619 137.533 15.4629C137.27 15.7639 136.894 16.3279 136.698 16.7159C136.203 17.6919 135.713 17.9639 134.287 18.0559L134.206 18.0613ZM166.794 9.75793C171.404 9.75493 172.766 8.97093 170.202 7.79493C169.179 7.32493 164.358 7.07593 163.011 7.42393C157.475 8.85193 155.819 13.3459 159.156 17.8819C159.57 18.4439 160.057 18.7789 161.551 19.5269C162.583 20.0429 163.69 20.6069 164.011 20.7789C164.331 20.9519 164.752 21.0929 164.944 21.0929C165.489 21.0939 166.383 21.4429 166.87 21.8469C167.114 22.0479 167.607 22.2599 167.966 22.3169C169.732 22.5999 170.73 26.0419 169.488 27.5679C169.271 27.8339 168.969 28.2809 168.817 28.5609C168.239 29.6229 166.982 29.8799 162.011 29.9559L158.761 30.0049L158.302 30.4839C157.777 31.0319 157.751 31.1429 158.087 31.4209C159.038 32.2099 165.496 32.8779 166.994 32.3429C167.416 32.1919 168.163 31.9469 168.655 31.7979C170.933 31.1099 173.179 27.6799 172.966 25.2169C172.776 23.0379 171.488 20.9219 169.888 20.1659C169.365 19.9179 168.747 19.5769 168.515 19.4079C168.284 19.2389 167.427 18.9089 166.611 18.6739C164.605 18.0969 162.025 16.7439 161.178 15.8249L160.511 15.1009V13.5519V12.0029L161.219 11.2379C161.741 10.6749 162.101 10.4419 162.588 10.3529C162.952 10.2859 163.454 10.1259 163.705 9.99593C164.041 9.82193 164.853 9.75993 166.794 9.75793ZM243.776 8.16546L243.751 8.22593C243.768 8.18485 243.784 8.14532 243.8 8.10727L243.776 8.16546ZM59.7938 7.70093C62.8098 8.78493 61.9228 9.52493 57.4038 9.69393C54.0578 9.81993 52.9568 10.1079 51.6508 11.1989C51.2818 11.5079 50.9238 11.7599 50.8558 11.7599C50.7878 11.7599 50.5298 12.1919 50.2838 12.7189C50.0378 13.2459 49.7268 13.8719 49.5928 14.1099C48.5968 15.8849 48.8228 24.3519 49.9228 26.4759C51.3548 29.2399 52.7538 29.9249 56.9808 29.9279C59.8558 29.9309 60.5628 30.0649 60.9688 30.6839C61.4008 31.3429 61.3188 31.4459 59.8738 32.0509C58.5638 32.5999 54.5088 32.7849 53.3438 32.3499C52.9308 32.1959 52.1438 31.9259 51.5938 31.7509C49.7908 31.1779 47.8748 29.0219 46.9348 26.5099C46.7638 26.0519 46.5048 25.4939 46.3608 25.2709C46.0358 24.7679 45.8948 18.8729 46.1518 16.5099C46.5508 12.8359 49.0168 8.84393 51.2608 8.23993C51.6268 8.14193 52.2648 7.91793 52.6768 7.74193C54.4848 6.97493 57.7198 6.95593 59.7938 7.70093ZM102.738 7.43893C103.059 7.69093 103.177 7.93693 103.177 8.35193C103.177 9.36993 103.003 9.40593 97.6738 9.48593C95.0628 9.52493 92.8008 9.60893 92.6468 9.67193C92.1308 9.88393 92.0108 10.7379 92.0138 14.1599C92.014 14.3484 92.0138 14.5287 92.0136 14.7013C92.0117 16.5364 92.0108 17.4943 92.4885 17.9985C93.0101 18.5489 94.1024 18.5587 96.387 18.5791C96.5837 18.5808 96.7911 18.5827 97.0058 18.5849C100.959 18.6279 101.77 18.8529 101.335 19.7899C100.879 20.7699 100.595 20.8349 96.3438 20.9399C94.1898 20.9929 92.4118 21.0499 92.3938 21.0649C91.9528 21.4339 91.8288 28.9269 92.2538 29.5329C92.7038 30.1759 93.6398 30.2849 97.9968 30.2019C100.235 30.1599 102.169 30.1649 102.294 30.2129C102.966 30.4709 103.092 32.0609 102.472 32.4539C101.915 32.8079 90.0778 32.6109 89.7448 32.2429C89.1968 31.6389 88.8968 8.37393 89.4268 7.64893C89.8998 7.00293 101.942 6.81293 102.738 7.43893ZM121.728 7.37093C123.326 7.51293 124.509 8.35993 124.077 9.05193C123.677 9.69193 123.206 9.77193 120.011 9.73993L116.927 9.70993L115.511 10.4249C113.983 11.1949 113.344 11.6779 113.344 12.0609C113.344 12.1939 113.125 12.6869 112.858 13.1569C112.59 13.6259 112.319 14.3099 112.254 14.6769C112.19 15.0439 111.996 15.5779 111.824 15.8629C111.416 16.5389 111.365 21.5399 111.749 23.1659C111.88 23.7219 112.075 24.5709 112.182 25.0509C112.289 25.5319 112.593 26.2449 112.857 26.6349C113.122 27.0249 113.339 27.4689 113.341 27.6219C113.348 28.2229 113.603 28.4699 114.907 29.1339L116.261 29.8239L119.872 29.9169L120.352 29.9292C122.842 29.9922 123.461 30.0079 123.659 30.3045C123.725 30.4025 123.744 30.5311 123.771 30.7023C123.776 30.7349 123.781 30.7691 123.787 30.8049C124.124 32.8819 117.214 33.2599 113.353 31.3759C109.983 29.7309 108.354 24.1409 109.022 16.5149C109.337 12.9249 111.446 8.88793 113.258 8.40593C113.626 8.30793 114.377 8.07093 114.927 7.87993C117.139 7.11193 118.058 7.04293 121.728 7.37093ZM178.172 7.88493C178.168 8.27793 178.143 8.30193 177.997 8.05093C177.903 7.88993 177.872 7.68293 177.928 7.59193C178.1 7.31393 178.178 7.40593 178.172 7.88493ZM14.8368 9.45793C15.4528 10.1199 14.1258 11.1249 13.0108 10.8419C12.7818 10.7839 12.2648 10.6849 11.8628 10.6229C10.9588 10.4829 10.5488 9.99993 10.9118 9.50293C11.1238 9.21293 11.2038 9.20293 11.7438 9.39793C12.2548 9.58293 12.3948 9.57693 12.7128 9.35393C13.2768 8.95893 14.4248 9.01493 14.8368 9.45793ZM124.713 32.4579C124.489 32.6819 124.31 32.3749 124.452 32.0069C124.554 31.7409 124.57 31.7409 124.719 32.0079C124.822 32.1909 124.819 32.3519 124.713 32.4579Z" fill="#489761"/>
<path fill-rule="evenodd" clip-rule="evenodd" d="M124.077 9.05193C124.509 8.35993 123.326 7.51293 121.728 7.37093C118.058 7.04293 117.139 7.11193 114.927 7.87993C114.377 8.07093 113.626 8.30793 113.258 8.40593C111.446 8.88793 109.337 12.9249 109.022 16.5149C108.354 24.1409 109.983 29.7309 113.353 31.3759C117.214 33.2599 124.124 32.8819 123.787 30.8049C123.781 30.7691 123.776 30.7349 123.771 30.7023C123.744 30.5311 123.725 30.4025 123.659 30.3045C123.461 30.0079 122.842 29.9922 120.352 29.9292L119.872 29.9169L116.261 29.8239L114.907 29.1339C113.603 28.4699 113.348 28.2229 113.341 27.6219C113.339 27.4689 113.122 27.0249 112.857 26.6349C112.593 26.2449 112.289 25.5319 112.182 25.0509C112.075 24.5709 111.88 23.7219 111.749 23.1659C111.365 21.5399 111.416 16.5389 111.824 15.8629C111.996 15.5779 112.19 15.0439 112.254 14.6769C112.319 14.3099 112.59 13.6259 112.858 13.1569C113.125 12.6869 113.344 12.1939 113.344 12.0609C113.344 11.6779 113.983 11.1949 115.511 10.4249L116.927 9.70993L120.011 9.73993C123.206 9.77193 123.677 9.69193 124.077 9.05193Z" fill="#489761"/>
<path fill-rule="evenodd" clip-rule="evenodd" d="M103.177 8.35193C103.177 7.93693 103.059 7.69093 102.738 7.43893C101.942 6.81293 89.8998 7.00293 89.4268 7.64893C88.8968 8.37393 89.1968 31.6389 89.7448 32.2429C90.0778 32.6109 101.915 32.8079 102.472 32.4539C103.092 32.0609 102.966 30.4709 102.294 30.2129C102.169 30.1649 100.235 30.1599 97.9968 30.2019C93.6398 30.2849 92.7038 30.1759 92.2538 29.5329C91.8288 28.9269 91.9528 21.4339 92.3938 21.0649C92.4118 21.0499 94.1898 20.9929 96.3438 20.9399C100.595 20.8349 100.879 20.7699 101.335 19.7899C101.77 18.8529 100.959 18.6279 97.0058 18.5849C96.7911 18.5827 96.5837 18.5808 96.387 18.5791C94.1024 18.5587 93.0101 18.5489 92.4885 17.9985C92.0108 17.4943 92.0117 16.5364 92.0136 14.7013C92.0138 14.5287 92.014 14.3484 92.0138 14.1599C92.0108 10.7379 92.1308 9.88393 92.6468 9.67193C92.8008 9.60893 95.0628 9.52493 97.6738 9.48593C103.003 9.40593 103.177 9.36993 103.177 8.35193Z" fill="#489761"/>
<path fill-rule="evenodd" clip-rule="evenodd" d="M75.8026 20.9295L75.6622 20.9328C75.3314 20.9407 74.9744 20.9488 74.5898 20.9549C70.7928 21.0159 70.1908 21.0889 69.6768 21.5459C69.6308 21.5869 69.5558 24.0029 69.5108 26.9149L69.5085 27.0602C69.4407 31.364 69.424 32.4183 68.9623 32.6764C68.8125 32.7601 68.6159 32.76 68.3554 32.7599L68.3268 32.7599C68.2712 32.7599 68.2181 32.761 68.1675 32.762C67.9738 32.7659 67.8151 32.769 67.6848 32.7097C67.0964 32.442 67.0874 30.9007 67.0493 22.3967L67.0489 22.3038L67.0418 20.7359C66.9788 7.14993 66.9918 7.03193 68.5358 7.35993C69.4758 7.55893 69.4888 7.63193 69.5148 13.0379C69.5161 13.318 69.5166 13.5841 69.5168 13.836L69.5169 13.893L69.5169 13.95L69.517 14.0082C69.5187 16.2118 69.5196 17.3112 70.0696 17.8732C70.6171 18.4327 71.7087 18.4597 73.8872 18.5137C74.187 18.5211 74.5074 18.529 74.8498 18.5389C75.1203 18.5468 75.3768 18.555 75.62 18.5628C77.7409 18.631 78.8478 18.6665 79.4201 18.1311C80.0444 17.547 80.033 16.2834 80.009 13.6413C80.0065 13.3643 80.0038 13.0721 80.0018 12.7639C79.9718 8.40693 80.0118 7.92993 80.4488 7.41793C80.7918 7.01493 81.7968 7.19993 82.1438 7.72993C82.4938 8.26393 82.6828 30.6489 82.3468 31.7999C82.1508 32.4699 81.7828 32.6649 80.9058 32.5649C79.9468 32.4549 79.8448 31.9089 79.8438 26.9059C79.8438 26.4009 79.8465 25.9378 79.8491 25.5132C79.8638 23.0659 79.8709 21.8981 79.2919 21.3548C78.7635 20.8589 77.7469 20.8832 75.8026 20.9295Z" fill="#489761"/>
<path fill-rule="evenodd" clip-rule="evenodd" d="M57.4038 9.69393C61.9228 9.52493 62.8098 8.78493 59.7938 7.70093C57.7198 6.95593 54.4848 6.97493 52.6768 7.74193C52.2648 7.91793 51.6268 8.14193 51.2608 8.23993C49.0168 8.84393 46.5508 12.8359 46.1518 16.5099C45.8948 18.8729 46.0358 24.7679 46.3608 25.2709C46.5048 25.4939 46.7638 26.0519 46.9348 26.5099C47.8748 29.0219 49.7908 31.1779 51.5938 31.7509C52.1438 31.9259 52.9308 32.1959 53.3438 32.3499C54.5088 32.7849 58.5638 32.5999 59.8738 32.0509C61.3188 31.4459 61.4008 31.3429 60.9688 30.6839C60.5628 30.0649 59.8558 29.9309 56.9808 29.9279C52.7538 29.9249 51.3548 29.2399 49.9228 26.4759C48.8228 24.3519 48.5968 15.8849 49.5928 14.1099C49.7268 13.8719 50.0378 13.2459 50.2838 12.7189C50.5298 12.1919 50.7878 11.7599 50.8558 11.7599C50.9238 11.7599 51.2818 11.5079 51.6508 11.1989C52.9568 10.1079 54.0578 9.81993 57.4038 9.69393Z" fill="#489761"/>
<path d="M58.329 32.33C56.635 32.33 55.238 32.077 54.138 31.571C53.06 31.043 52.213 30.284 51.597 29.294C51.003 28.282 50.585 27.05 50.343 25.598C50.123 24.146 50.013 22.485 50.013 20.615C50.013 18.723 50.123 17.04 50.343 15.566C50.563 14.092 50.97 12.849 51.564 11.837C52.18 10.825 53.027 10.066 54.105 9.56C55.205 9.032 56.613 8.768 58.329 8.768C59.121 8.768 59.902 8.801 60.672 8.867C61.442 8.933 62.157 9.021 62.817 9.131C63.499 9.241 64.082 9.351 64.566 9.461L64.467 11.309C64.005 11.221 63.422 11.133 62.718 11.045C62.014 10.957 61.288 10.88 60.54 10.814C59.814 10.748 59.143 10.715 58.527 10.715C57.185 10.715 56.096 10.924 55.26 11.342C54.424 11.76 53.786 12.387 53.346 13.223C52.928 14.059 52.642 15.093 52.488 16.325C52.334 17.557 52.257 18.987 52.257 20.615C52.257 22.221 52.334 23.64 52.488 24.872C52.642 26.082 52.928 27.094 53.346 27.908C53.786 28.722 54.424 29.338 55.26 29.756C56.096 30.174 57.196 30.383 58.56 30.383C59.528 30.383 60.551 30.317 61.629 30.185C62.729 30.053 63.675 29.921 64.467 29.789L64.566 31.637C64.038 31.747 63.422 31.857 62.718 31.967C62.036 32.077 61.321 32.165 60.573 32.231C59.825 32.297 59.077 32.33 58.329 32.33ZM70.1412 32V9.098H72.2862V19.526H84.5292V9.098H86.6742V32H84.5292V21.44H72.2862V32H70.1412ZM93.7297 32V9.098H107.524V11.012H95.8747V19.394H105.544V21.275H95.8747V30.086H107.524V32H93.7297ZM120.587 32.33C118.893 32.33 117.496 32.077 116.396 31.571C115.318 31.043 114.471 30.284 113.855 29.294C113.261 28.282 112.843 27.05 112.601 25.598C112.381 24.146 112.271 22.485 112.271 20.615C112.271 18.723 112.381 17.04 112.601 15.566C112.821 14.092 113.228 12.849 113.822 11.837C114.438 10.825 115.285 10.066 116.363 9.56C117.463 9.032 118.871 8.768 120.587 8.768C121.379 8.768 122.16 8.801 122.93 8.867C123.7 8.933 124.415 9.021 125.075 9.131C125.757 9.241 126.34 9.351 126.824 9.461L126.725 11.309C126.263 11.221 125.68 11.133 124.976 11.045C124.272 10.957 123.546 10.88 122.798 10.814C122.072 10.748 121.401 10.715 120.785 10.715C119.443 10.715 118.354 10.924 117.518 11.342C116.682 11.76 116.044 12.387 115.604 13.223C115.186 14.059 114.9 15.093 114.746 16.325C114.592 17.557 114.515 18.987 114.515 20.615C114.515 22.221 114.592 23.64 114.746 24.872C114.9 26.082 115.186 27.094 115.604 27.908C116.044 28.722 116.682 29.338 117.518 29.756C118.354 30.174 119.454 30.383 120.818 30.383C121.786 30.383 122.809 30.317 123.887 30.185C124.987 30.053 125.933 29.921 126.725 29.789L126.824 31.637C126.296 31.747 125.68 31.857 124.976 31.967C124.294 32.077 123.579 32.165 122.831 32.231C122.083 32.297 121.335 32.33 120.587 32.33ZM132.399 32V9.098H134.544V19.856L138.438 19.757L144.708 9.098H147.183L140.352 20.615L147.612 32H145.038L138.504 21.671L134.544 21.77V32H132.399ZM167.055 32.264C166.417 32.264 165.658 32.231 164.778 32.165C163.92 32.099 163.051 32.011 162.171 31.901C161.313 31.791 160.554 31.692 159.894 31.604L160.125 29.789C160.763 29.855 161.5 29.932 162.336 30.02C163.194 30.108 164.03 30.185 164.844 30.251C165.68 30.317 166.384 30.35 166.956 30.35C168.1 30.35 169.046 30.185 169.794 29.855C170.564 29.503 171.136 28.964 171.51 28.238C171.906 27.512 172.104 26.577 172.104 25.433C172.104 24.509 171.928 23.783 171.576 23.255C171.224 22.705 170.663 22.287 169.893 22.001C169.123 21.693 168.1 21.418 166.824 21.176C165.658 20.956 164.624 20.714 163.722 20.45C162.842 20.164 162.105 19.79 161.511 19.328C160.917 18.866 160.466 18.272 160.158 17.546C159.872 16.82 159.729 15.896 159.729 14.774C159.729 13.3 160.026 12.123 160.62 11.243C161.214 10.363 162.061 9.725 163.161 9.329C164.261 8.911 165.537 8.702 166.989 8.702C167.649 8.702 168.386 8.746 169.2 8.834C170.036 8.9 170.861 8.977 171.675 9.065C172.489 9.153 173.193 9.252 173.787 9.362L173.589 11.21C172.951 11.122 172.214 11.045 171.378 10.979C170.542 10.891 169.739 10.814 168.969 10.748C168.199 10.682 167.583 10.649 167.121 10.649C165.999 10.649 165.042 10.792 164.25 11.078C163.48 11.342 162.897 11.771 162.501 12.365C162.105 12.937 161.907 13.696 161.907 14.642C161.907 15.72 162.105 16.545 162.501 17.117C162.897 17.667 163.513 18.085 164.349 18.371C165.207 18.657 166.307 18.943 167.649 19.229C168.793 19.449 169.772 19.702 170.586 19.988C171.422 20.274 172.115 20.637 172.665 21.077C173.215 21.517 173.622 22.078 173.886 22.76C174.15 23.442 174.282 24.278 174.282 25.268C174.282 26.962 173.996 28.326 173.424 29.36C172.852 30.372 172.027 31.109 170.949 31.571C169.871 32.033 168.573 32.264 167.055 32.264ZM187.713 32.33C186.085 32.33 184.688 32.099 183.522 31.637C182.356 31.153 181.465 30.394 180.849 29.36C180.233 28.326 179.925 26.94 179.925 25.202V9.098H182.07V25.235C182.07 27.105 182.565 28.436 183.555 29.228C184.567 29.998 185.953 30.383 187.713 30.383C189.583 30.383 191.024 29.998 192.036 29.228C193.07 28.436 193.587 27.105 193.587 25.235V9.098H195.732V25.202C195.732 26.918 195.413 28.304 194.775 29.36C194.159 30.394 193.257 31.153 192.069 31.637C190.881 32.099 189.429 32.33 187.713 32.33ZM210.074 32.33C208.38 32.33 206.983 32.077 205.883 31.571C204.805 31.043 203.958 30.284 203.342 29.294C202.748 28.282 202.33 27.05 202.088 25.598C201.868 24.146 201.758 22.485 201.758 20.615C201.758 18.723 201.868 17.04 202.088 15.566C202.308 14.092 202.715 12.849 203.309 11.837C203.925 10.825 204.772 10.066 205.85 9.56C206.95 9.032 208.358 8.768 210.074 8.768C210.866 8.768 211.647 8.801 212.417 8.867C213.187 8.933 213.902 9.021 214.562 9.131C215.244 9.241 215.827 9.351 216.311 9.461L216.212 11.309C215.75 11.221 215.167 11.133 214.463 11.045C213.759 10.957 213.033 10.88 212.285 10.814C211.559 10.748 210.888 10.715 210.272 10.715C208.93 10.715 207.841 10.924 207.005 11.342C206.169 11.76 205.531 12.387 205.091 13.223C204.673 14.059 204.387 15.093 204.233 16.325C204.079 17.557 204.002 18.987 204.002 20.615C204.002 22.221 204.079 23.64 204.233 24.872C204.387 26.082 204.673 27.094 205.091 27.908C205.531 28.722 206.169 29.338 207.005 29.756C207.841 30.174 208.941 30.383 210.305 30.383C211.273 30.383 212.296 30.317 213.374 30.185C214.474 30.053 215.42 29.921 216.212 29.789L216.311 31.637C215.783 31.747 215.167 31.857 214.463 31.967C213.781 32.077 213.066 32.165 212.318 32.231C211.57 32.297 210.822 32.33 210.074 32.33ZM229.15 32.33C227.456 32.33 226.059 32.077 224.959 31.571C223.881 31.043 223.034 30.284 222.418 29.294C221.824 28.282 221.406 27.05 221.164 25.598C220.944 24.146 220.834 22.485 220.834 20.615C220.834 18.723 220.944 17.04 221.164 15.566C221.384 14.092 221.791 12.849 222.385 11.837C223.001 10.825 223.848 10.066 224.926 9.56C226.026 9.032 227.434 8.768 229.15 8.768C229.942 8.768 230.723 8.801 231.493 8.867C232.263 8.933 232.978 9.021 233.638 9.131C234.32 9.241 234.903 9.351 235.387 9.461L235.288 11.309C234.826 11.221 234.243 11.133 233.539 11.045C232.835 10.957 232.109 10.88 231.361 10.814C230.635 10.748 229.964 10.715 229.348 10.715C228.006 10.715 226.917 10.924 226.081 11.342C225.245 11.76 224.607 12.387 224.167 13.223C223.749 14.059 223.463 15.093 223.309 16.325C223.155 17.557 223.078 18.987 223.078 20.615C223.078 22.221 223.155 23.64 223.309 24.872C223.463 26.082 223.749 27.094 224.167 27.908C224.607 28.722 225.245 29.338 226.081 29.756C226.917 30.174 228.017 30.383 229.381 30.383C230.349 30.383 231.372 30.317 232.45 30.185C233.55 30.053 234.496 29.921 235.288 29.789L235.387 31.637C234.859 31.747 234.243 31.857 233.539 31.967C232.857 32.077 232.142 32.165 231.394 32.231C230.646 32.297 229.898 32.33 229.15 32.33ZM240.963 32V9.098H254.757V11.012H243.108V19.394H252.777V21.275H243.108V30.086H254.757V32H240.963ZM266.532 32.264C265.894 32.264 265.135 32.231 264.255 32.165C263.397 32.099 262.528 32.011 261.648 31.901C260.79 31.791 260.031 31.692 259.371 31.604L259.602 29.789C260.24 29.855 260.977 29.932 261.813 30.02C262.671 30.108 263.507 30.185 264.321 30.251C265.157 30.317 265.861 30.35 266.433 30.35C267.577 30.35 268.523 30.185 269.271 29.855C270.041 29.503 270.613 28.964 270.987 28.238C271.383 27.512 271.581 26.577 271.581 25.433C271.581 24.509 271.405 23.783 271.053 23.255C270.701 22.705 270.14 22.287 269.37 22.001C268.6 21.693 267.577 21.418 266.301 21.176C265.135 20.956 264.101 20.714 263.199 20.45C262.319 20.164 261.582 19.79 260.988 19.328C260.394 18.866 259.943 18.272 259.635 17.546C259.349 16.82 259.206 15.896 259.206 14.774C259.206 13.3 259.503 12.123 260.097 11.243C260.691 10.363 261.538 9.725 262.638 9.329C263.738 8.911 265.014 8.702 266.466 8.702C267.126 8.702 267.863 8.746 268.677 8.834C269.513 8.9 270.338 8.977 271.152 9.065C271.966 9.153 272.67 9.252 273.264 9.362L273.066 11.21C272.428 11.122 271.691 11.045 270.855 10.979C270.019 10.891 269.216 10.814 268.446 10.748C267.676 10.682 267.06 10.649 266.598 10.649C265.476 10.649 264.519 10.792 263.727 11.078C262.957 11.342 262.374 11.771 261.978 12.365C261.582 12.937 261.384 13.696 261.384 14.642C261.384 15.72 261.582 16.545 261.978 17.117C262.374 17.667 262.99 18.085 263.826 18.371C264.684 18.657 265.784 18.943 267.126 19.229C268.27 19.449 269.249 19.702 270.063 19.988C270.899 20.274 271.592 20.637 272.142 21.077C272.692 21.517 273.099 22.078 273.363 22.76C273.627 23.442 273.759 24.278 273.759 25.268C273.759 26.962 273.473 28.326 272.901 29.36C272.329 30.372 271.504 31.109 270.426 31.571C269.348 32.033 268.05 32.264 266.532 32.264ZM285.705 32.264C285.067 32.264 284.308 32.231 283.428 32.165C282.57 32.099 281.701 32.011 280.821 31.901C279.963 31.791 279.204 31.692 278.544 31.604L278.775 29.789C279.413 29.855 280.15 29.932 280.986 30.02C281.844 30.108 282.68 30.185 283.494 30.251C284.33 30.317 285.034 30.35 285.606 30.35C286.75 30.35 287.696 30.185 288.444 29.855C289.214 29.503 289.786 28.964 290.16 28.238C290.556 27.512 290.754 26.577 290.754 25.433C290.754 24.509 290.578 23.783 290.226 23.255C289.874 22.705 289.313 22.287 288.543 22.001C287.773 21.693 286.75 21.418 285.474 21.176C284.308 20.956 283.274 20.714 282.372 20.45C281.492 20.164 280.755 19.79 280.161 19.328C279.567 18.866 279.116 18.272 278.808 17.546C278.522 16.82 278.379 15.896 278.379 14.774C278.379 13.3 278.676 12.123 279.27 11.243C279.864 10.363 280.711 9.725 281.811 9.329C282.911 8.911 284.187 8.702 285.639 8.702C286.299 8.702 287.036 8.746 287.85 8.834C288.686 8.9 289.511 8.977 290.325 9.065C291.139 9.153 291.843 9.252 292.437 9.362L292.239 11.21C291.601 11.122 290.864 11.045 290.028 10.979C289.192 10.891 288.389 10.814 287.619 10.748C286.849 10.682 286.233 10.649 285.771 10.649C284.649 10.649 283.692 10.792 282.9 11.078C282.13 11.342 281.547 11.771 281.151 12.365C280.755 12.937 280.557 13.696 280.557 14.642C280.557 15.72 280.755 16.545 281.151 17.117C281.547 17.667 282.163 18.085 282.999 18.371C283.857 18.657 284.957 18.943 286.299 19.229C287.443 19.449 288.422 19.702 289.236 19.988C290.072 20.274 290.765 20.637 291.315 21.077C291.865 21.517 292.272 22.078 292.536 22.76C292.8 23.442 292.932 24.278 292.932 25.268C292.932 26.962 292.646 28.326 292.074 29.36C291.502 30.372 290.677 31.109 289.599 31.571C288.521 32.033 287.223 32.264 285.705 32.264Z" fill="white"/>
</g>
<defs>
<clipPath id="clip0_3921_5041">
<rect width="343" height="40" fill="white"/>
</clipPath>
</defs>
</svg>
