<svg width="343" height="41" viewBox="0 0 343 41" fill="none" xmlns="http://www.w3.org/2000/svg">
<g clip-path="url(#clip0_3921_5045)">
<path fill-rule="evenodd" clip-rule="evenodd" d="M11.8479 39.4799C11.8558 39.48 11.8637 39.4801 11.8717 39.4801C11.9459 39.4807 12.0207 39.4812 12.0961 39.4818C12.5313 39.485 12.9869 39.4884 13.4638 39.492M75.8026 21.5506C75.8026 21.5506 75.8026 21.5506 75.8026 21.5506C75.8668 21.5491 75.93 21.5476 75.9921 21.5461Z" fill="#9D2D18"/>
<path fill-rule="evenodd" clip-rule="evenodd" d="M296.388 9.74502C297.248 8.88402 295.745 8.13202 292.654 7.87702C289.737 7.63502 288.182 7.77202 287.478 8.33102C287.359 8.42702 286.881 8.59302 286.417 8.70202C285.339 8.95402 283.626 10.555 283.319 11.597C282.877 13.098 283.265 16.912 283.939 17.695C285.482 19.485 288.27 21.216 290.572 21.814C291.11 21.953 291.748 22.208 291.989 22.381C292.23 22.553 292.727 22.774 293.094 22.871C295.25 23.442 295.957 26.749 294.406 29.005C293.537 30.269 292.248 30.539 287.073 30.545C283.671 30.548 283.655 30.552 283.45 31.411C283.314 31.982 283.638 32.316 284.56 32.553C284.945 32.652 285.523 32.818 285.844 32.921C286.999 33.293 291.799 33.183 292.844 32.761C293.348 32.558 294.061 32.315 294.427 32.222C295.28 32.005 296.987 30.405 297.331 29.5C299.107 24.827 297.253 21.028 292.427 19.454C287.25 17.766 285.844 16.599 285.844 13.988C285.844 11.455 287.607 10.385 291.797 10.374C294.954 10.366 295.896 10.237 296.388 9.74502Z" fill="#9D2D18"/>
<path fill-rule="evenodd" clip-rule="evenodd" d="M275.94 9.70102C276.536 9.04202 274.98 8.11502 273.052 7.98002C272.899 7.96935 272.753 7.95905 272.612 7.94914C272.592 7.94772 272.572 7.94631 272.552 7.94491C270.16 7.77687 269.371 7.72309 268.623 7.87174C268.265 7.9428 267.916 8.06012 267.406 8.23334C267.333 8.25808 267.257 8.28397 267.177 8.31102C264.88 9.08902 264.187 9.51302 263.469 10.582C261.555 13.428 262.487 18.114 265.24 19.491C265.71 19.726 266.244 20.051 266.427 20.214C266.611 20.377 266.948 20.564 267.177 20.63C267.407 20.696 267.931 20.961 268.344 21.219C268.756 21.477 269.581 21.782 270.177 21.897C270.773 22.012 271.609 22.28 272.035 22.494C272.461 22.707 272.914 22.881 273.043 22.881C274.021 22.881 274.899 24.762 274.753 26.548C274.478 29.941 273.395 30.524 267.177 30.623L263.427 30.683L263.094 31.291L262.761 31.9L263.094 32.148C263.277 32.284 263.615 32.433 263.844 32.478C264.073 32.523 264.671 32.679 265.173 32.824C270.067 34.242 276.169 32.191 277.177 28.79C277.459 27.837 277.341 23.417 277.021 22.965C276.057 21.601 273.399 19.76 272.084 19.546C271.559 19.461 270.779 19.208 270.351 18.984C269.924 18.761 269.26 18.493 268.876 18.39C268.229 18.216 267.973 18.038 266.685 16.871C266.426 16.636 266.018 16.316 265.779 16.159C265.099 15.713 265.115 12.852 265.801 12.019C266.413 11.277 266.674 11.084 267.23 10.957C267.489 10.898 267.74 10.744 267.79 10.616C267.863 10.426 268.479 10.381 271.038 10.381C274.342 10.381 275.465 10.225 275.94 9.70102Z" fill="#9D2D18"/>
<path fill-rule="evenodd" clip-rule="evenodd" d="M257.677 8.37602C257.677 8.30502 257.326 8.12602 256.898 7.98002C256.241 7.75702 255.249 7.71802 250.606 7.73402C250.387 7.73478 250.176 7.73546 249.972 7.73612C249.879 7.73642 249.788 7.73671 249.698 7.73701C245.387 7.75103 244.452 7.76166 244.06 8.22846C243.952 8.35719 243.885 8.52061 243.8 8.72836C243.792 8.74739 243.784 8.76678 243.776 8.78655C243.768 8.80633 243.759 8.82648 243.751 8.84702C243.442 9.58702 243.39 30.922 243.695 32.131C243.709 32.1863 243.722 32.2403 243.734 32.2913C243.737 32.3022 243.739 32.3129 243.742 32.3235C243.806 32.5869 243.858 32.7875 243.974 32.9393C244.345 33.4254 245.371 33.4119 249.539 33.3569C249.78 33.3537 250.033 33.3504 250.296 33.347C256.602 33.266 257.135 33.19 257.532 32.317C258.111 31.048 257.172 30.774 252.094 30.734C251.821 30.7319 251.561 30.7302 251.313 30.7287C251.164 30.7278 251.02 30.727 250.879 30.726C248.259 30.7091 247.094 30.6775 246.579 30.083C246.166 29.6073 246.17 28.7709 246.175 27.2928C246.176 27.1093 246.177 26.9159 246.177 26.712C246.177 26.3661 246.175 26.044 246.174 25.7439C246.173 25.5939 246.172 25.4495 246.171 25.3103C246.163 23.5012 246.185 22.5914 246.65 22.1238C247.121 21.6513 248.044 21.6302 249.849 21.589C249.858 21.5888 249.867 21.5886 249.876 21.5884C250.174 21.5816 250.496 21.5741 250.844 21.564C254.568 21.456 254.921 21.387 255.419 20.676C256.259 19.477 254.724 18.964 250.741 19.112C250.594 19.1175 250.452 19.1229 250.315 19.128C248.255 19.2057 247.22 19.2349 246.7 18.7317C246.185 18.2332 246.176 17.2123 246.177 15.1982C246.177 15.0639 246.177 14.9253 246.177 14.782C246.177 14.505 246.175 14.2449 246.174 14.0008C246.173 13.8788 246.173 13.7607 246.172 13.6465C246.166 12.1618 246.189 11.328 246.613 10.8523C247.156 10.2437 248.355 10.2209 250.99 10.1707C251 10.1705 251.01 10.1703 251.019 10.1702C251.346 10.1639 251.693 10.1573 252.065 10.149C257.421 10.029 257.961 9.92302 257.781 9.02702C257.724 8.74102 257.677 8.44802 257.677 8.37602Z" fill="#9D2D18"/>
<path fill-rule="evenodd" clip-rule="evenodd" d="M237.688 9.01702C237.271 8.48502 236.205 8.10702 234.511 7.88702C230.114 7.31702 225.803 8.88202 224.661 11.463C224.492 11.845 224.205 12.346 224.023 12.578C223.841 12.809 223.54 13.553 223.354 14.231C223.168 14.91 222.906 15.765 222.771 16.131C222.586 16.632 222.526 17.586 222.527 19.965C222.531 29.803 226.938 34.446 234.879 32.976C237.594 32.474 237.904 32.255 237.382 31.209L237.094 30.631L233.677 30.528C229.262 30.395 228.161 29.98 227.11 28.047C226.857 27.582 226.498 27.06 226.312 26.888C225.173 25.827 225.19 16.311 226.334 14.067C226.922 12.914 228.104 11.631 228.952 11.225C229.397 11.012 229.973 10.735 230.233 10.609C230.58 10.441 231.531 10.381 233.855 10.381H237.005L237.521 9.92102L238.037 9.46002L237.688 9.01702Z" fill="#9D2D18"/>
<path fill-rule="evenodd" clip-rule="evenodd" d="M217.145 9.67102C217.533 9.20302 215.29 8.11902 213.433 7.87702C211.474 7.62302 209.312 7.79702 208.366 8.28702C208.098 8.42502 207.566 8.58902 207.183 8.65002C206.752 8.71902 206.228 8.97702 205.808 9.32802C205.434 9.64002 205.008 9.96002 204.86 10.04C204.712 10.119 204.254 10.72 203.842 11.377C203.431 12.033 202.933 12.819 202.736 13.124C202.315 13.777 202.256 14.023 201.918 16.548C201.52 19.518 201.36 22.026 201.533 22.61C201.618 22.897 201.832 23.985 202.01 25.028C202.188 26.071 202.437 27.083 202.563 27.278C202.69 27.472 202.886 27.913 202.999 28.258C203.479 29.724 206.176 32.239 207.508 32.464C207.897 32.53 208.555 32.734 208.969 32.917C211.398 33.991 217.52 32.688 216.605 31.291C216.187 30.653 215.834 30.587 212.727 30.561C209.017 30.531 208.152 30.267 206.813 28.76C206.751 28.689 206.432 28.348 206.105 28.001C205.778 27.654 205.511 27.275 205.511 27.159C205.511 27.042 205.331 26.576 205.111 26.122C204.337 24.529 204.144 17.668 204.83 16.163C205.021 15.743 205.178 15.264 205.18 15.099C205.184 14.571 205.602 13.57 205.982 13.178C206.184 12.969 206.677 12.447 207.077 12.017C208.411 10.584 209.359 10.307 213.011 10.286C216.048 10.268 216.734 10.166 217.145 9.67102Z" fill="#9D2D18"/>
<path fill-rule="evenodd" clip-rule="evenodd" d="M181.514 17.274C181.433 9.18202 181.406 8.56002 181.125 8.24902C180.474 7.53002 179.443 7.84702 178.997 8.90302C178.683 9.64902 178.655 25.074 178.967 26.131C179.075 26.498 179.284 27.285 179.433 27.881C179.786 29.297 180.94 31.078 181.706 31.387C182.011 31.51 182.486 31.772 182.761 31.968C184.625 33.302 187.755 33.588 190.093 32.64C193.49 31.262 193.598 31.153 195.044 27.631L195.592 26.298L195.646 17.881C195.707 8.38902 195.701 8.33502 194.697 8.03402C192.923 7.50302 192.829 8.00002 192.791 18.157L192.761 26.465L192.011 27.859C190.939 29.852 190.366 30.234 188.291 30.342C184.986 30.515 183.648 30.079 182.67 28.508C182.658 28.4889 182.644 28.4672 182.633 28.4484C182.45 28.1538 182.299 27.9085 182.175 27.6505C181.605 26.4663 181.591 25.0151 181.514 17.2993C181.514 17.2909 181.514 17.2824 181.514 17.274Z" fill="#9D2D18"/>
<path fill-rule="evenodd" clip-rule="evenodd" d="M134.206 18.6824L134.133 18.6874L134.066 18.692C133.573 18.7266 133.243 18.7496 133.026 18.605C132.589 18.3152 132.6 17.3521 132.633 14.4595C132.635 14.2536 132.637 14.0379 132.64 13.812C132.679 10.092 132.646 9.37702 132.415 8.85902C131.867 7.63302 130.37 7.53602 129.775 8.68802C129.421 9.37202 129.579 32.107 129.942 32.67C130.41 33.399 131.764 33.288 132.225 32.483C132.365 32.241 132.455 30.631 132.515 27.298L132.524 26.7809C132.588 23.2119 132.607 22.1953 133.095 21.856C133.29 21.7208 133.559 21.6931 133.936 21.6543C133.98 21.6498 134.026 21.6451 134.073 21.64C135.472 21.49 136.305 21.87 136.753 22.864C136.92 23.235 137.197 23.665 137.368 23.82C137.539 23.974 137.761 24.407 137.862 24.782C138.024 25.382 138.382 25.898 139.492 27.131C139.657 27.315 140.073 27.99 140.416 28.631C140.759 29.273 141.288 30.06 141.59 30.381C141.893 30.702 142.195 31.152 142.26 31.381C142.64 32.705 144.439 33.622 145.522 33.042C146.298 32.627 145.385 30.316 143.91 28.965C143.71 28.781 143.429 28.27 143.285 27.829C143.141 27.387 142.73 26.675 142.372 26.245C142.014 25.816 141.525 25.076 141.286 24.601C141.046 24.127 140.772 23.69 140.675 23.63C140.579 23.57 140.344 23.19 140.154 22.785C139.963 22.38 139.746 22.048 139.671 22.048C139.596 22.048 139.256 21.589 138.915 21.027L138.295 20.007L138.75 19.069C139.354 17.824 140.307 16.444 140.773 16.139C140.979 16.003 141.199 15.661 141.261 15.378C141.324 15.095 141.555 14.661 141.776 14.414C142.772 13.3 143.197 12.707 143.371 12.189C143.475 11.882 143.995 11.172 144.528 10.611M256.898 7.98002C257.326 8.12602 257.677 8.30502 257.677 8.37602C257.677 8.44802 257.724 8.74102 257.781 9.02702C257.961 9.92302 257.421 10.029 252.065 10.149C251.693 10.1573 251.346 10.1639 251.019 10.1702L250.99 10.1707C248.355 10.2209 247.156 10.2437 246.613 10.8523C246.189 11.328 246.166 12.1618 246.172 13.6465L246.174 14.0008C246.175 14.2449 246.177 14.505 246.177 14.782L246.177 15.1982C246.176 17.2123 246.185 18.2332 246.7 18.7317C247.22 19.2349 248.255 19.2057 250.315 19.128L250.741 19.112C254.724 18.964 256.259 19.477 255.419 20.676C254.921 21.387 254.568 21.456 250.844 21.564C250.496 21.5741 250.174 21.5816 249.876 21.5884L249.849 21.589C248.044 21.6302 247.121 21.6513 246.65 22.1238C246.185 22.5914 246.163 23.5012 246.171 25.3103L246.174 25.7439C246.175 26.044 246.177 26.3661 246.177 26.712C246.177 26.9159 246.176 27.1093 246.175 27.2928C246.17 28.7709 246.166 29.6073 246.579 30.083C247.094 30.6775 248.259 30.7091 250.879 30.726L251.313 30.7287C251.561 30.7302 251.821 30.7319 252.094 30.734C257.172 30.774 258.111 31.048 257.532 32.317C257.135 33.19 256.602 33.266 250.296 33.347L249.539 33.3569C245.371 33.4119 244.345 33.4254 243.974 32.9393C243.858 32.7875 243.806 32.5869 243.742 32.3235L243.734 32.2913C243.722 32.2403 243.709 32.1863 243.695 32.131C243.39 30.922 243.442 9.58702 243.751 8.84702L243.776 8.78655L243.8 8.72836C243.885 8.52061 243.952 8.35719 244.06 8.22846C244.452 7.76166 245.387 7.75103 249.698 7.73701L249.972 7.73612L250.606 7.73402C255.249 7.71802 256.241 7.75702 256.898 7.98002Z" fill="#9D2D18"/>
<path fill-rule="evenodd" clip-rule="evenodd" d="M166.794 10.379C171.404 10.376 172.766 9.59202 170.202 8.41602C169.179 7.94602 164.358 7.69702 163.011 8.04502C157.475 9.47302 155.819 13.967 159.156 18.503C159.57 19.065 160.057 19.4 161.551 20.148C162.583 20.664 163.69 21.228 164.011 21.4C164.331 21.573 164.752 21.714 164.944 21.714C165.489 21.715 166.383 22.064 166.87 22.468C167.114 22.669 167.607 22.881 167.966 22.938C169.732 23.221 170.73 26.663 169.488 28.189C169.271 28.455 168.969 28.902 168.817 29.182C168.239 30.244 166.982 30.501 162.011 30.577L158.761 30.626L158.302 31.105C157.777 31.653 157.751 31.764 158.087 32.042C159.038 32.831 165.496 33.499 166.994 32.964C167.416 32.813 168.163 32.568 168.655 32.419C170.933 31.731 173.179 28.301 172.966 25.838C172.776 23.659 171.488 21.543 169.888 20.787C169.365 20.539 168.747 20.198 168.515 20.029C168.284 19.86 167.427 19.53 166.611 19.295C164.605 18.718 162.025 17.365 161.178 16.446L160.511 15.722V14.173V12.624L161.219 11.859C161.741 11.296 162.101 11.063 162.588 10.974C162.952 10.907 163.454 10.747 163.705 10.617C164.041 10.443 164.853 10.381 166.794 10.379Z" fill="#9D2D18"/>
<path fill-rule="evenodd" clip-rule="evenodd" d="M132.524 26.7809L132.515 27.298C132.455 30.631 132.365 32.241 132.225 32.483C131.764 33.288 130.41 33.399 129.942 32.67C129.579 32.107 129.421 9.37202 129.775 8.68802C130.37 7.53602 131.867 7.63302 132.415 8.85902C132.646 9.37702 132.679 10.092 132.64 13.812C132.637 14.0379 132.635 14.2536 132.633 14.4595C132.6 17.3521 132.589 18.3152 133.026 18.605C133.243 18.7496 133.573 18.7266 134.066 18.692C134.088 18.6905 134.11 18.6889 134.133 18.6874C134.157 18.6857 134.181 18.684 134.206 18.6824C134.232 18.6806 134.26 18.6788 134.287 18.677C135.713 18.585 136.203 18.313 136.698 17.337C136.894 16.949 137.27 16.385 137.533 16.084C137.796 15.783 138.011 15.429 138.011 15.298C138.011 15.167 138.225 14.813 138.486 14.512C138.748 14.211 139.054 13.79 139.166 13.576C139.37 13.188 139.548 12.951 140.363 11.983C140.603 11.698 140.951 11.165 141.137 10.798C141.323 10.431 141.633 9.98802 141.826 9.81402C142.019 9.63902 142.177 9.41002 142.177 9.30502C142.177 9.08802 143.1 8.17702 143.575 7.92602C143.899 7.75402 144.948 7.90802 145.176 8.16002C145.719 8.76102 145.5 9.58802 144.528 10.611C143.995 11.172 143.475 11.882 143.371 12.189C143.197 12.707 142.772 13.3 141.776 14.414C141.555 14.661 141.324 15.095 141.261 15.378C141.199 15.661 140.979 16.003 140.773 16.139C140.307 16.444 139.354 17.824 138.75 19.069L138.295 20.007L138.915 21.027C139.256 21.589 139.596 22.048 139.671 22.048C139.746 22.048 139.963 22.38 140.154 22.785C140.344 23.19 140.579 23.57 140.675 23.63C140.772 23.69 141.046 24.127 141.286 24.601C141.525 25.076 142.014 25.816 142.372 26.245C142.73 26.675 143.141 27.387 143.285 27.829C143.429 28.27 143.71 28.781 143.91 28.965C145.385 30.316 146.298 32.627 145.522 33.042C144.439 33.622 142.64 32.705 142.26 31.381C142.195 31.152 141.893 30.702 141.59 30.381C141.288 30.06 140.759 29.273 140.416 28.631C140.073 27.99 139.657 27.315 139.492 27.131C138.382 25.898 138.024 25.382 137.862 24.782C137.761 24.407 137.539 23.974 137.368 23.82C137.197 23.665 136.92 23.235 136.753 22.864C136.305 21.87 135.472 21.49 134.073 21.64C134.026 21.6451 133.98 21.6498 133.936 21.6543C133.559 21.6931 133.29 21.7208 133.095 21.856C132.607 22.1953 132.588 23.2119 132.524 26.7809Z" fill="#9D2D18"/>
<path fill-rule="evenodd" clip-rule="evenodd" d="M75.8026 21.5506C75.7564 21.5517 75.7094 21.5528 75.6622 21.5539C75.3314 21.5618 74.9744 21.5699 74.5898 21.576C70.7928 21.637 70.1908 21.71 69.6768 22.167C69.6308 22.208 69.5558 24.624 69.5108 27.536L69.5085 27.6812C69.4407 31.9851 69.424 33.0394 68.9623 33.2975C68.8125 33.3812 68.6159 33.3811 68.3554 33.381L68.3268 33.381C68.2712 33.381 68.2181 33.3821 68.1675 33.3831C67.9738 33.3869 67.8151 33.3901 67.6848 33.3308C67.0964 33.0631 67.0874 31.5218 67.0493 23.0178L67.0489 22.9249" fill="#9D2D18"/>
<path fill-rule="evenodd" clip-rule="evenodd" d="M12.0961 39.4818L11.8717 39.4801C4.20763 39.4232 2.98773 39.4093 2.7147 38.8938C2.66306 38.7963 2.64529 38.6808 2.6242 38.5437C2.61799 38.5034 2.6115 38.4612 2.60377 38.417C2.54377 38.077 2.31977 37.16 2.10577 36.381C1.55577 34.375 1.72577 22.162 2.34177 19.495C2.42977 19.112 2.50377 18.251 2.50677 17.582C2.51177 16.033 2.88977 15.548 4.09177 15.548C5.12277 15.548 5.83576 15.22 6.52076 14.432C6.83576 14.069 7.41177 13.596 7.79977 13.381C8.34777 13.077 8.56877 12.819 8.78777 12.227C8.94377 11.808 9.16976 11.317 9.29076 11.136C9.60476 10.666 9.57077 10.488 9.01477 9.66402C8.24377 8.52102 8.11577 8.45602 7.45277 8.86602L6.88477 9.21702L6.43877 8.63202C6.01477 8.07602 5.94477 8.04802 4.96577 8.04802C3.76077 8.04802 2.56277 7.64202 2.41777 7.18402C2.21177 6.53802 2.51677 5.20402 2.90277 5.06202C3.88777 4.69802 9.72976 4.56202 10.8258 4.87602C11.4328 5.05002 12.5378 4.58202 12.9278 3.98702C13.2838 3.44302 14.1048 2.96202 14.9368 2.81002C15.3998 2.72602 15.7658 2.49902 16.1768 2.04302C16.7228 1.43702 17.0438 1.31002 17.8848 1.36302C18.0448 1.37302 18.4628 1.64102 18.8138 1.95802C20.1398 3.15502 23.0108 3.16102 24.5728 1.97002C25.2188 1.47702 25.7438 1.56902 26.4798 2.30502C27.1268 2.95302 28.1868 2.88302 28.9258 2.14402C29.5828 1.48702 30.7588 1.24302 31.9598 1.51602C32.3548 1.60602 32.9728 1.61602 33.3798 1.54002C35.5838 1.12902 41.5068 1.43102 42.6888 2.01502C43.0798 2.20902 43.4538 2.33302 43.5208 2.29102C43.6818 2.19202 47.9478 1.87202 50.1768 1.79202C51.1398 1.75702 52.6018 1.68402 53.4268 1.62902C54.2518 1.57302 55.0018 1.53102 55.0938 1.53402C58.3908 1.64002 85.8748 1.70002 96.9268 1.62502C103.575 1.58002 112.491 1.57002 129.844 1.58702C139.113 1.59602 142.773 1.54502 143.741 1.39202C144.762 1.23102 145.286 1.22902 146.092 1.38102C146.887 1.53102 147.981 1.53102 150.778 1.37902C155.145 1.14302 155.62 1.15102 156.981 1.48802C157.561 1.63102 158.228 1.71202 158.464 1.66702C158.699 1.62202 159.108 1.64702 159.372 1.72302C159.695 1.81502 160.041 1.78202 160.426 1.62102C160.742 1.48902 161.226 1.38102 161.502 1.38102C161.778 1.38102 162.3 1.26302 162.661 1.11802C163.259 0.87902 163.41 0.87902 164.341 1.11802C165.262 1.35402 165.413 1.35402 165.859 1.12402C166.161 0.967021 166.562 0.90402 166.89 0.96202C167.186 1.01302 167.652 0.985021 167.927 0.900021C168.202 0.814021 168.54 0.780021 168.677 0.824021C169.674 1.14402 170.567 1.19402 171.226 0.964021C172.049 0.677021 172.656 0.652021 173.254 0.879021C173.491 0.969021 174.977 1.08302 176.556 1.13102C178.135 1.18002 180.027 1.29702 180.761 1.39102C183.512 1.74502 191.593 1.55702 192.656 1.11502C193.43 0.793021 193.949 0.822021 194.797 1.23202C195.326 1.48802 195.689 1.55502 196.141 1.47902C197.574 1.23802 201.605 1.10802 202.177 1.28502C202.81 1.48002 219.534 1.48902 238.761 1.30502C244.627 1.24802 249.54 1.20202 249.677 1.20102C249.815 1.20102 251.765 1.28402 254.011 1.38602C256.256 1.48802 259.894 1.53402 262.094 1.48802C264.294 1.44202 269.277 1.40402 273.167 1.40402C279.223 1.40502 280.463 1.36302 281.799 1.11102C283.304 0.82802 283.391 0.828021 284.268 1.12702C285.092 1.40702 285.347 1.41702 286.978 1.24002C287.967 1.13302 289.114 1.09102 289.525 1.14802C289.936 1.20402 290.542 1.17602 290.872 1.08502C291.593 0.88502 292.263 1.01002 294.251 1.71302C295.296 2.08302 295.9 2.21002 296.275 2.14002C296.64 2.07102 296.988 2.13802 297.369 2.35102C297.872 2.63102 298.249 2.65702 301.177 2.60502L302.152 2.58776C309.487 2.45777 310.166 2.44574 310.712 2.7081C310.767 2.73447 310.821 2.76361 310.88 2.79567C310.905 2.80949 310.934 2.82511 310.962 2.84002C311.348 3.04602 311.902 3.21502 312.193 3.21502C312.484 3.21502 313.016 3.30302 313.375 3.41002C313.88 3.56202 314.263 3.55902 315.073 3.39802C315.96 3.22202 316.271 3.23002 317.13 3.45202C318.442 3.79202 320.057 3.78202 321.927 3.42102C323.626 3.09302 327.412 3.06602 333.011 3.34202C336.237 3.50102 336.88 3.62002 337.961 4.25702C338.308 4.46202 339.056 4.62502 340.097 4.72302C342.011 4.90392 342.011 4.90402 342.008 5.68179C342.005 6.50479 341.878 6.66202 341.094 6.80602C339.895 7.02602 339.179 7.83502 339.181 8.96502C339.183 9.94602 339.327 10.073 340.482 10.104C341.779 10.139 341.917 10.289 342.278 12.048C342.666 13.937 342.75 15.587 342.507 16.527C342.394 16.965 342.29 18.739 342.266 20.631C342.205 25.42 342.009 26.45 341.043 27.063C339.822 27.837 339.515 28.427 339.704 29.631C340.294 33.396 340.036 36.899 339.084 38.03L338.69 38.498L336.984 38.416L335.278 38.334L334.853 38.832C334.122 39.69 333.619 39.9 331.753 40.129C329.842 40.362 323.04 40.094 320.927 39.702C320.192 39.565 317.791 39.565 311.844 39.703C307.398 39.806 302.411 39.921 300.761 39.959C299.111 39.996 296.523 40.122 295.011 40.239C293.084 40.387 288.844 40.438 280.844 40.411C274.565 40.39 253.827 40.356 234.761 40.335C212.077 40.311 200.008 40.241 199.844 40.132C199.679 40.022 175.662 39.964 129.177 39.961C90.4478 39.959 54.4398 39.89 49.1598 39.809C40.3348 39.673 39.4888 39.684 38.6938 39.943C37.9918 40.173 37.7128 40.191 37.2118 40.04C36.4458 39.809 27.3038 39.598 13.4638 39.492L12.0961 39.4818ZM69.517 14.6292L69.5169 14.571C69.5169 14.5521 69.5169 14.5332 69.5169 14.5141C69.5169 14.4952 69.5168 14.4762 69.5168 14.4571C69.5166 14.2052 69.5161 13.9391 69.5148 13.659C69.4888 8.25302 69.4758 8.18002 68.5358 7.98102C66.9918 7.65302 66.9788 7.77102 67.0418 21.357L67.0489 22.9249L67.0493 23.0178C67.0874 31.5218 67.0964 33.0631 67.6848 33.3308C67.8151 33.3901 67.9738 33.3869 68.1675 33.3831C68.2181 33.3821 68.2712 33.381 68.3268 33.381L68.3554 33.381C68.6159 33.3811 68.8125 33.3812 68.9623 33.2975C69.424 33.0394 69.4407 31.9851 69.5085 27.6812L69.5108 27.536C69.5558 24.624 69.6308 22.208 69.6768 22.167C70.1908 21.71 70.7928 21.637 74.5898 21.576C74.9744 21.5699 75.3314 21.5618 75.6622 21.5539C75.7094 21.5528 75.7564 21.5517 75.8026 21.5506C77.7469 21.5043 78.7635 21.48 79.2919 21.9759C79.8709 22.5192 79.8638 23.687 79.8491 26.1342C79.8465 26.5588 79.8438 27.022 79.8438 27.527C79.8448 32.53 79.9468 33.076 80.9058 33.186C81.7828 33.286 82.1508 33.091 82.3468 32.421C82.6828 31.27 82.4938 8.88502 82.1438 8.35102C81.7968 7.82102 80.7918 7.63602 80.4488 8.03902C80.0118 8.55102 79.9718 9.02802 80.0018 13.385C80.0038 13.6932 80.0065 13.9854 80.009 14.2624C80.033 16.9045 80.0444 18.1681 79.4201 18.7522C78.8478 19.2876 77.7409 19.2521 75.62 19.1839C75.3768 19.1761 75.1203 19.1679 74.8498 19.16C74.5074 19.1501 74.187 19.1422 73.8872 19.1348C71.7087 19.0808 70.6171 19.0538 70.0696 18.4943C69.5196 17.9323 69.5187 16.8329 69.517 14.6292ZM296.388 9.74502C297.248 8.88402 295.745 8.13202 292.654 7.87702C289.737 7.63502 288.182 7.77202 287.478 8.33102C287.359 8.42702 286.881 8.59302 286.417 8.70202C285.339 8.95402 283.626 10.555 283.319 11.597C282.877 13.098 283.265 16.912 283.939 17.695C285.482 19.485 288.27 21.216 290.572 21.814C291.11 21.953 291.748 22.208 291.989 22.381C292.23 22.553 292.727 22.774 293.094 22.871C295.25 23.442 295.957 26.749 294.406 29.005C293.537 30.269 292.248 30.539 287.073 30.545C283.671 30.548 283.655 30.552 283.45 31.411C283.314 31.982 283.638 32.316 284.56 32.553C284.945 32.652 285.523 32.818 285.844 32.921C286.999 33.293 291.799 33.183 292.844 32.761C293.348 32.558 294.061 32.315 294.427 32.222C295.28 32.005 296.987 30.405 297.331 29.5C299.107 24.827 297.253 21.028 292.427 19.454C287.25 17.766 285.844 16.599 285.844 13.988C285.844 11.455 287.607 10.385 291.797 10.374C294.954 10.366 295.896 10.237 296.388 9.74502ZM275.94 9.70102C276.536 9.04202 274.98 8.11502 273.052 7.98002L272.612 7.94914L272.552 7.94491C270.16 7.77687 269.371 7.72309 268.623 7.87174C268.265 7.9428 267.916 8.06012 267.406 8.23334L267.177 8.31102C264.88 9.08902 264.187 9.51302 263.469 10.582C261.555 13.428 262.487 18.114 265.24 19.491C265.71 19.726 266.244 20.051 266.427 20.214C266.611 20.377 266.948 20.564 267.177 20.63C267.407 20.696 267.931 20.961 268.344 21.219C268.756 21.477 269.581 21.782 270.177 21.897C270.773 22.012 271.609 22.28 272.035 22.494C272.461 22.707 272.914 22.881 273.043 22.881C274.021 22.881 274.899 24.762 274.753 26.548C274.478 29.941 273.395 30.524 267.177 30.623L263.427 30.683L263.094 31.291L262.761 31.9L263.094 32.148C263.277 32.284 263.615 32.433 263.844 32.478C264.073 32.523 264.671 32.679 265.173 32.824C270.067 34.242 276.169 32.191 277.177 28.79C277.459 27.837 277.341 23.417 277.021 22.965C276.057 21.601 273.399 19.76 272.084 19.546C271.559 19.461 270.779 19.208 270.351 18.984C269.924 18.761 269.26 18.493 268.876 18.39C268.229 18.216 267.973 18.038 266.685 16.871C266.426 16.636 266.018 16.316 265.779 16.159C265.099 15.713 265.115 12.852 265.801 12.019C266.413 11.277 266.674 11.084 267.23 10.957C267.489 10.898 267.74 10.744 267.79 10.616C267.863 10.426 268.479 10.381 271.038 10.381C274.342 10.381 275.465 10.225 275.94 9.70102ZM257.677 8.37602C257.677 8.30502 257.326 8.12602 256.898 7.98002L257.677 8.37602ZM237.688 9.01702C237.271 8.48502 236.205 8.10702 234.511 7.88702C230.114 7.31702 225.803 8.88202 224.661 11.463C224.492 11.845 224.205 12.346 224.023 12.578C223.841 12.809 223.54 13.553 223.354 14.231C223.168 14.91 222.906 15.765 222.771 16.131C222.586 16.632 222.526 17.586 222.527 19.965C222.531 29.803 226.938 34.446 234.879 32.976C237.594 32.474 237.904 32.255 237.382 31.209L237.094 30.631L233.677 30.528C229.262 30.395 228.161 29.98 227.11 28.047C226.857 27.582 226.498 27.06 226.312 26.888C225.173 25.827 225.19 16.311 226.334 14.067C226.922 12.914 228.104 11.631 228.952 11.225C229.397 11.012 229.973 10.735 230.233 10.609C230.58 10.441 231.531 10.381 233.855 10.381H237.005L237.521 9.92102L238.037 9.46002L237.688 9.01702ZM217.145 9.67102C217.533 9.20302 215.29 8.11902 213.433 7.87702C211.474 7.62302 209.312 7.79702 208.366 8.28702C208.098 8.42502 207.566 8.58902 207.183 8.65002C206.752 8.71902 206.228 8.97702 205.808 9.32802C205.434 9.64002 205.008 9.96002 204.86 10.04C204.712 10.119 204.254 10.72 203.842 11.377C203.431 12.033 202.933 12.819 202.736 13.124C202.315 13.777 202.256 14.023 201.918 16.548C201.52 19.518 201.36 22.026 201.533 22.61C201.618 22.897 201.832 23.985 202.01 25.028C202.188 26.071 202.437 27.083 202.563 27.278C202.69 27.472 202.886 27.913 202.999 28.258C203.479 29.724 206.176 32.239 207.508 32.464C207.897 32.53 208.555 32.734 208.969 32.917C211.398 33.991 217.52 32.688 216.605 31.291C216.187 30.653 215.834 30.587 212.727 30.561C209.017 30.531 208.152 30.267 206.813 28.76C206.751 28.689 206.432 28.348 206.105 28.001C205.778 27.654 205.511 27.275 205.511 27.159C205.511 27.042 205.331 26.576 205.111 26.122C204.337 24.529 204.144 17.668 204.83 16.163C205.021 15.743 205.178 15.264 205.18 15.099C205.184 14.571 205.602 13.57 205.982 13.178C206.184 12.969 206.677 12.447 207.077 12.017C208.411 10.584 209.359 10.307 213.011 10.286C216.048 10.268 216.734 10.166 217.145 9.67102ZM181.514 17.274C181.433 9.18202 181.406 8.56002 181.125 8.24902C180.474 7.53002 179.443 7.84702 178.997 8.90302C178.683 9.64902 178.655 25.074 178.967 26.131C179.075 26.498 179.284 27.285 179.433 27.881C179.786 29.297 180.94 31.078 181.706 31.387C182.011 31.51 182.486 31.772 182.761 31.968C184.625 33.302 187.755 33.588 190.093 32.64C193.49 31.262 193.598 31.153 195.044 27.631L195.592 26.298L195.646 17.881C195.707 8.38902 195.701 8.33502 194.697 8.03402C192.923 7.50302 192.829 8.00002 192.791 18.157L192.761 26.465L192.011 27.859C190.939 29.852 190.366 30.234 188.291 30.342C184.986 30.515 183.648 30.079 182.67 28.508L182.633 28.4484C182.45 28.1538 182.299 27.9085 182.175 27.6505C181.605 26.4663 181.591 25.0151 181.514 17.2993L181.514 17.274ZM134.206 18.6824L134.133 18.6874L134.066 18.692C133.573 18.7266 133.243 18.7496 133.026 18.605C132.589 18.3152 132.6 17.3521 132.633 14.4595C132.635 14.2536 132.637 14.0379 132.64 13.812C132.679 10.092 132.646 9.37702 132.415 8.85902C131.867 7.63302 130.37 7.53602 129.775 8.68802C129.421 9.37202 129.579 32.107 129.942 32.67C130.41 33.399 131.764 33.288 132.225 32.483C132.365 32.241 132.455 30.631 132.515 27.298L132.524 26.7809C132.588 23.2119 132.607 22.1953 133.095 21.856C133.29 21.7208 133.559 21.6931 133.936 21.6543C133.98 21.6498 134.026 21.6451 134.073 21.64C135.472 21.49 136.305 21.87 136.753 22.864C136.92 23.235 137.197 23.665 137.368 23.82C137.539 23.974 137.761 24.407 137.862 24.782C138.024 25.382 138.382 25.898 139.492 27.131C139.657 27.315 140.073 27.99 140.416 28.631C140.759 29.273 141.288 30.06 141.59 30.381C141.893 30.702 142.195 31.152 142.26 31.381C142.64 32.705 144.439 33.622 145.522 33.042C146.298 32.627 145.385 30.316 143.91 28.965C143.71 28.781 143.429 28.27 143.285 27.829C143.141 27.387 142.73 26.675 142.372 26.245C142.014 25.816 141.525 25.076 141.286 24.601C141.046 24.127 140.772 23.69 140.675 23.63C140.579 23.57 140.344 23.19 140.154 22.785C139.963 22.38 139.746 22.048 139.671 22.048C139.596 22.048 139.256 21.589 138.915 21.027L138.295 20.007L138.75 19.069C139.354 17.824 140.307 16.444 140.773 16.139C140.979 16.003 141.199 15.661 141.261 15.378C141.324 15.095 141.555 14.661 141.776 14.414C142.772 13.3 143.197 12.707 143.371 12.189C143.475 11.882 143.995 11.172 144.528 10.611C145.5 9.58802 145.719 8.76102 145.176 8.16002C144.948 7.90802 143.899 7.75402 143.575 7.92602C143.1 8.17702 142.177 9.08802 142.177 9.30502C142.177 9.41002 142.019 9.63902 141.826 9.81402C141.633 9.98802 141.323 10.431 141.137 10.798C140.951 11.165 140.603 11.698 140.363 11.983C139.548 12.951 139.37 13.188 139.166 13.576C139.054 13.79 138.748 14.211 138.486 14.512C138.225 14.813 138.011 15.167 138.011 15.298C138.011 15.429 137.796 15.783 137.533 16.084C137.27 16.385 136.894 16.949 136.698 17.337C136.203 18.313 135.713 18.585 134.287 18.677L134.206 18.6824ZM166.794 10.379C171.404 10.376 172.766 9.59202 170.202 8.41602C169.179 7.94602 164.358 7.69702 163.011 8.04502C157.475 9.47302 155.819 13.967 159.156 18.503C159.57 19.065 160.057 19.4 161.551 20.148C162.583 20.664 163.69 21.228 164.011 21.4C164.331 21.573 164.752 21.714 164.944 21.714C165.489 21.715 166.383 22.064 166.87 22.468C167.114 22.669 167.607 22.881 167.966 22.938C169.732 23.221 170.73 26.663 169.488 28.189C169.271 28.455 168.969 28.902 168.817 29.182C168.239 30.244 166.982 30.501 162.011 30.577L158.761 30.626L158.302 31.105C157.777 31.653 157.751 31.764 158.087 32.042C159.038 32.831 165.496 33.499 166.994 32.964C167.416 32.813 168.163 32.568 168.655 32.419C170.933 31.731 173.179 28.301 172.966 25.838C172.776 23.659 171.488 21.543 169.888 20.787C169.365 20.539 168.747 20.198 168.515 20.029C168.284 19.86 167.427 19.53 166.611 19.295C164.605 18.718 162.025 17.365 161.178 16.446L160.511 15.722V14.173V12.624L161.219 11.859C161.741 11.296 162.101 11.063 162.588 10.974C162.952 10.907 163.454 10.747 163.705 10.617C164.041 10.443 164.853 10.381 166.794 10.379ZM243.776 8.78655L243.751 8.84702C243.768 8.80594 243.784 8.76641 243.8 8.72836L243.776 8.78655ZM59.7938 8.32202C62.8098 9.40602 61.9228 10.146 57.4038 10.315C54.0578 10.441 52.9568 10.729 51.6508 11.82C51.2818 12.129 50.9238 12.381 50.8558 12.381C50.7878 12.381 50.5298 12.813 50.2838 13.34C50.0378 13.867 49.7268 14.493 49.5928 14.731C48.5968 16.506 48.8228 24.973 49.9228 27.097C51.3548 29.861 52.7538 30.546 56.9808 30.549C59.8558 30.552 60.5628 30.686 60.9688 31.305C61.4008 31.964 61.3188 32.067 59.8738 32.672C58.5638 33.221 54.5088 33.406 53.3438 32.971C52.9308 32.817 52.1438 32.547 51.5938 32.372C49.7908 31.799 47.8748 29.643 46.9348 27.131C46.7638 26.673 46.5048 26.115 46.3608 25.892C46.0358 25.389 45.8948 19.494 46.1518 17.131C46.5508 13.457 49.0168 9.46502 51.2608 8.86102C51.6268 8.76302 52.2648 8.53902 52.6768 8.36302C54.4848 7.59602 57.7198 7.57702 59.7938 8.32202ZM102.738 8.06002C103.059 8.31202 103.177 8.55802 103.177 8.97302C103.177 9.99102 103.003 10.027 97.6738 10.107C95.0628 10.146 92.8008 10.23 92.6468 10.293C92.1308 10.505 92.0108 11.359 92.0138 14.781C92.014 14.9695 92.0138 15.1498 92.0136 15.3224C92.0117 17.1575 92.0108 18.1154 92.4885 18.6196C93.0101 19.17 94.1024 19.1798 96.387 19.2001C96.5837 19.2019 96.7911 19.2038 97.0058 19.206C100.959 19.249 101.77 19.474 101.335 20.411C100.879 21.391 100.595 21.456 96.3438 21.561C94.1898 21.614 92.4118 21.671 92.3938 21.686C91.9528 22.055 91.8288 29.548 92.2538 30.154C92.7038 30.797 93.6398 30.906 97.9968 30.823C100.235 30.781 102.169 30.786 102.294 30.834C102.966 31.092 103.092 32.682 102.472 33.075C101.915 33.429 90.0778 33.232 89.7448 32.864C89.1968 32.26 88.8968 8.99502 89.4268 8.27002C89.8998 7.62402 101.942 7.43402 102.738 8.06002ZM121.728 7.99202C123.326 8.13402 124.509 8.98102 124.077 9.67302C123.677 10.313 123.206 10.393 120.011 10.361L116.927 10.331L115.511 11.046C113.983 11.816 113.344 12.299 113.344 12.682C113.344 12.815 113.125 13.308 112.858 13.778C112.59 14.247 112.319 14.931 112.254 15.298C112.19 15.665 111.996 16.199 111.824 16.484C111.416 17.16 111.365 22.161 111.749 23.787C111.88 24.343 112.075 25.192 112.182 25.672C112.289 26.153 112.593 26.866 112.857 27.256C113.122 27.646 113.339 28.09 113.341 28.243C113.348 28.844 113.603 29.091 114.907 29.755L116.261 30.445L119.872 30.538L120.352 30.5503C122.842 30.6133 123.461 30.629 123.659 30.9256C123.725 31.0236 123.744 31.1522 123.771 31.3234C123.776 31.356 123.781 31.3902 123.787 31.426C124.124 33.503 117.214 33.881 113.353 31.997C109.983 30.352 108.354 24.762 109.022 17.136C109.337 13.546 111.446 9.50902 113.258 9.02702C113.626 8.92902 114.377 8.69202 114.927 8.50102C117.139 7.73302 118.058 7.66402 121.728 7.99202ZM178.172 8.50602C178.168 8.89902 178.143 8.92302 177.997 8.67202C177.903 8.51102 177.872 8.30402 177.928 8.21302C178.1 7.93502 178.178 8.02702 178.172 8.50602ZM14.8368 10.079C15.4528 10.741 14.1258 11.746 13.0108 11.463C12.7818 11.405 12.2648 11.306 11.8628 11.244C10.9588 11.104 10.5488 10.621 10.9118 10.124C11.1238 9.83402 11.2038 9.82402 11.7438 10.019C12.2548 10.204 12.3948 10.198 12.7128 9.97502C13.2768 9.58002 14.4248 9.63602 14.8368 10.079ZM124.713 33.079C124.489 33.303 124.31 32.996 124.452 32.628C124.554 32.362 124.57 32.362 124.719 32.629C124.822 32.812 124.819 32.973 124.713 33.079Z" fill="#9D2D18"/>
<path fill-rule="evenodd" clip-rule="evenodd" d="M124.077 9.67302C124.509 8.98102 123.326 8.13402 121.728 7.99202C118.058 7.66402 117.139 7.73302 114.927 8.50102C114.377 8.69202 113.626 8.92902 113.258 9.02702C111.446 9.50902 109.337 13.546 109.022 17.136C108.354 24.762 109.983 30.352 113.353 31.997C117.214 33.881 124.124 33.503 123.787 31.426C123.781 31.3902 123.776 31.356 123.771 31.3234C123.744 31.1522 123.725 31.0236 123.659 30.9256C123.461 30.629 122.842 30.6133 120.352 30.5503L119.872 30.538L116.261 30.445L114.907 29.755C113.603 29.091 113.348 28.844 113.341 28.243C113.339 28.09 113.122 27.646 112.857 27.256C112.593 26.866 112.289 26.153 112.182 25.672C112.075 25.192 111.88 24.343 111.749 23.787C111.365 22.161 111.416 17.16 111.824 16.484C111.996 16.199 112.19 15.665 112.254 15.298C112.319 14.931 112.59 14.247 112.858 13.778C113.125 13.308 113.344 12.815 113.344 12.682C113.344 12.299 113.983 11.816 115.511 11.046L116.927 10.331L120.011 10.361C123.206 10.393 123.677 10.313 124.077 9.67302Z" fill="#9D2D18"/>
<path fill-rule="evenodd" clip-rule="evenodd" d="M103.177 8.97302C103.177 8.55802 103.059 8.31202 102.738 8.06002C101.942 7.43402 89.8998 7.62402 89.4268 8.27002C88.8968 8.99502 89.1968 32.26 89.7448 32.864C90.0778 33.232 101.915 33.429 102.472 33.075C103.092 32.682 102.966 31.092 102.294 30.834C102.169 30.786 100.235 30.781 97.9968 30.823C93.6398 30.906 92.7038 30.797 92.2538 30.154C91.8288 29.548 91.9528 22.055 92.3938 21.686C92.4118 21.671 94.1898 21.614 96.3438 21.561C100.595 21.456 100.879 21.391 101.335 20.411C101.77 19.474 100.959 19.249 97.0058 19.206C96.7911 19.2038 96.5837 19.2019 96.387 19.2001C94.1024 19.1798 93.0101 19.17 92.4885 18.6196C92.0108 18.1154 92.0117 17.1575 92.0136 15.3224C92.0138 15.1498 92.014 14.9695 92.0138 14.781C92.0108 11.359 92.1308 10.505 92.6468 10.293C92.8008 10.23 95.0628 10.146 97.6738 10.107C103.003 10.027 103.177 9.99102 103.177 8.97302Z" fill="#9D2D18"/>
<path fill-rule="evenodd" clip-rule="evenodd" d="M75.8026 21.5506L75.6622 21.5539C75.3314 21.5618 74.9744 21.5699 74.5898 21.576C70.7928 21.637 70.1908 21.71 69.6768 22.167C69.6308 22.208 69.5558 24.624 69.5108 27.536L69.5085 27.6812C69.4407 31.9851 69.424 33.0394 68.9623 33.2975C68.8125 33.3812 68.6159 33.3811 68.3554 33.381L68.3268 33.381C68.2712 33.381 68.2181 33.3821 68.1675 33.3831C67.9738 33.3869 67.8151 33.3901 67.6848 33.3308C67.0964 33.0631 67.0874 31.5218 67.0493 23.0178L67.0489 22.9249L67.0418 21.357C66.9788 7.77102 66.9918 7.65302 68.5358 7.98102C69.4758 8.18002 69.4888 8.25302 69.5148 13.659C69.5161 13.9391 69.5166 14.2052 69.5168 14.4571L69.5169 14.5141L69.5169 14.571L69.517 14.6292C69.5187 16.8329 69.5196 17.9323 70.0696 18.4943C70.6171 19.0538 71.7087 19.0808 73.8872 19.1348C74.187 19.1422 74.5074 19.1501 74.8498 19.16C75.1203 19.1679 75.3768 19.1761 75.62 19.1839C77.7409 19.2521 78.8478 19.2876 79.4201 18.7522C80.0444 18.1681 80.033 16.9045 80.009 14.2624C80.0065 13.9854 80.0038 13.6932 80.0018 13.385C79.9718 9.02802 80.0118 8.55102 80.4488 8.03902C80.7918 7.63602 81.7968 7.82102 82.1438 8.35102C82.4938 8.88502 82.6828 31.27 82.3468 32.421C82.1508 33.091 81.7828 33.286 80.9058 33.186C79.9468 33.076 79.8448 32.53 79.8438 27.527C79.8438 27.022 79.8465 26.5588 79.8491 26.1342C79.8638 23.687 79.8709 22.5192 79.2919 21.9759C78.7635 21.48 77.7469 21.5043 75.8026 21.5506Z" fill="#9D2D18"/>
<path fill-rule="evenodd" clip-rule="evenodd" d="M57.4038 10.315C61.9228 10.146 62.8098 9.40602 59.7938 8.32202C57.7198 7.57702 54.4848 7.59602 52.6768 8.36302C52.2648 8.53902 51.6268 8.76302 51.2608 8.86102C49.0168 9.46502 46.5508 13.457 46.1518 17.131C45.8948 19.494 46.0358 25.389 46.3608 25.892C46.5048 26.115 46.7638 26.673 46.9348 27.131C47.8748 29.643 49.7908 31.799 51.5938 32.372C52.1438 32.547 52.9308 32.817 53.3438 32.971C54.5088 33.406 58.5638 33.221 59.8738 32.672C61.3188 32.067 61.4008 31.964 60.9688 31.305C60.5628 30.686 59.8558 30.552 56.9808 30.549C52.7538 30.546 51.3548 29.861 49.9228 27.097C48.8228 24.973 48.5968 16.506 49.5928 14.731C49.7268 14.493 50.0378 13.867 50.2838 13.34C50.5298 12.813 50.7878 12.381 50.8558 12.381C50.9238 12.381 51.2818 12.129 51.6508 11.82C52.9568 10.729 54.0578 10.441 57.4038 10.315Z" fill="#9D2D18"/>
<path d="M63.329 33.33C61.635 33.33 60.238 33.077 59.138 32.571C58.06 32.043 57.213 31.284 56.597 30.294C56.003 29.282 55.585 28.05 55.343 26.598C55.123 25.146 55.013 23.485 55.013 21.615C55.013 19.723 55.123 18.04 55.343 16.566C55.563 15.092 55.97 13.849 56.564 12.837C57.18 11.825 58.027 11.066 59.105 10.56C60.205 10.032 61.613 9.768 63.329 9.768C64.121 9.768 64.902 9.801 65.672 9.867C66.442 9.933 67.157 10.021 67.817 10.131C68.499 10.241 69.082 10.351 69.566 10.461L69.467 12.309C69.005 12.221 68.422 12.133 67.718 12.045C67.014 11.957 66.288 11.88 65.54 11.814C64.814 11.748 64.143 11.715 63.527 11.715C62.185 11.715 61.096 11.924 60.26 12.342C59.424 12.76 58.786 13.387 58.346 14.223C57.928 15.059 57.642 16.093 57.488 17.325C57.334 18.557 57.257 19.987 57.257 21.615C57.257 23.221 57.334 24.64 57.488 25.872C57.642 27.082 57.928 28.094 58.346 28.908C58.786 29.722 59.424 30.338 60.26 30.756C61.096 31.174 62.196 31.383 63.56 31.383C64.528 31.383 65.551 31.317 66.629 31.185C67.729 31.053 68.675 30.921 69.467 30.789L69.566 32.637C69.038 32.747 68.422 32.857 67.718 32.967C67.036 33.077 66.321 33.165 65.573 33.231C64.825 33.297 64.077 33.33 63.329 33.33ZM75.1412 33V10.098H77.2862V20.526H89.5292V10.098H91.6742V33H89.5292V22.44H77.2862V33H75.1412ZM98.7297 33V10.098H112.524V12.012H100.875V20.394H110.544V22.275H100.875V31.086H112.524V33H98.7297ZM125.587 33.33C123.893 33.33 122.496 33.077 121.396 32.571C120.318 32.043 119.471 31.284 118.855 30.294C118.261 29.282 117.843 28.05 117.601 26.598C117.381 25.146 117.271 23.485 117.271 21.615C117.271 19.723 117.381 18.04 117.601 16.566C117.821 15.092 118.228 13.849 118.822 12.837C119.438 11.825 120.285 11.066 121.363 10.56C122.463 10.032 123.871 9.768 125.587 9.768C126.379 9.768 127.16 9.801 127.93 9.867C128.7 9.933 129.415 10.021 130.075 10.131C130.757 10.241 131.34 10.351 131.824 10.461L131.725 12.309C131.263 12.221 130.68 12.133 129.976 12.045C129.272 11.957 128.546 11.88 127.798 11.814C127.072 11.748 126.401 11.715 125.785 11.715C124.443 11.715 123.354 11.924 122.518 12.342C121.682 12.76 121.044 13.387 120.604 14.223C120.186 15.059 119.9 16.093 119.746 17.325C119.592 18.557 119.515 19.987 119.515 21.615C119.515 23.221 119.592 24.64 119.746 25.872C119.9 27.082 120.186 28.094 120.604 28.908C121.044 29.722 121.682 30.338 122.518 30.756C123.354 31.174 124.454 31.383 125.818 31.383C126.786 31.383 127.809 31.317 128.887 31.185C129.987 31.053 130.933 30.921 131.725 30.789L131.824 32.637C131.296 32.747 130.68 32.857 129.976 32.967C129.294 33.077 128.579 33.165 127.831 33.231C127.083 33.297 126.335 33.33 125.587 33.33ZM137.399 33V10.098H139.544V20.856L143.438 20.757L149.708 10.098H152.183L145.352 21.615L152.612 33H150.038L143.504 22.671L139.544 22.77V33H137.399ZM165.917 33V10.098H179.447V12.012H168.062V21.351H177.731V23.298H168.062V33H165.917ZM180.724 33L187.258 10.098H192.208L198.709 33H196.564L194.749 26.763H184.651L182.869 33H180.724ZM185.146 24.849H194.287L190.591 11.946H188.842L185.146 24.849ZM203.716 33V10.098H205.861V33H203.716ZM212.899 33V10.098H215.044V31.053H225.439V33H212.899ZM237.44 33.33C235.812 33.33 234.415 33.099 233.249 32.637C232.083 32.153 231.192 31.394 230.576 30.36C229.96 29.326 229.652 27.94 229.652 26.202V10.098H231.797V26.235C231.797 28.105 232.292 29.436 233.282 30.228C234.294 30.998 235.68 31.383 237.44 31.383C239.31 31.383 240.751 30.998 241.763 30.228C242.797 29.436 243.314 28.105 243.314 26.235V10.098H245.459V26.202C245.459 27.918 245.14 29.304 244.502 30.36C243.886 31.394 242.984 32.153 241.796 32.637C240.608 33.099 239.156 33.33 237.44 33.33ZM252.342 33V10.098H260.757C262.341 10.098 263.661 10.34 264.717 10.824C265.773 11.286 266.565 12.023 267.093 13.035C267.643 14.047 267.918 15.345 267.918 16.929C267.918 18.623 267.566 20.053 266.862 21.219C266.18 22.385 265.069 23.177 263.529 23.595L268.182 33H265.806L261.384 24.024H254.487V33H252.342ZM254.487 22.11H260.757C261.989 22.11 262.957 21.89 263.661 21.45C264.387 21.01 264.904 20.405 265.212 19.635C265.52 18.843 265.674 17.941 265.674 16.929C265.674 15.257 265.267 14.025 264.453 13.233C263.661 12.419 262.429 12.012 260.757 12.012H254.487V22.11ZM273.965 33V10.098H287.759V12.012H276.11V20.394H285.779V22.275H276.11V31.086H287.759V33H273.965Z" fill="white"/>
</g>
<defs>
<clipPath id="clip0_3921_5045">
<rect width="343" height="40" fill="white" transform="translate(0 0.621094)"/>
</clipPath>
</defs>
</svg>
